<svg class="marks" width="392" height="255" version="1.1" xmlns="http://www.w3.org/2000/svg" xmlns:xlink="http://www.w3.org/1999/xlink"><defs><linearGradient id="gradient_2" x1="0" x2="1" y1="0" y2="0"><stop offset="0" stop-color="#afc6a3"></stop><stop offset="1" stop-color="#09622a"></stop></linearGradient></defs><g transform="translate(58,12)"><g class="mark-group"><g transform="translate(0,0)"><rect class="background" width="1" height="1" style="fill: none;"></rect><g class="mark-group root"><g transform="translate(0,0)"><rect class="background" width="200" height="200" style="fill: none;"></rect><g class="mark-group"><g transform="translate(0,200)"><rect class="background" width="0" height="0" style="pointer-events: none; fill: none;"></rect><g class="mark-rule" style="pointer-events: none;"><line transform="translate(29.5,-200)" x2="0" y2="200" style="fill: none; stroke: #000; stroke-opacity: 0.15; opacity: 1;"></line><line transform="translate(64.5,-200)" x2="0" y2="200" style="fill: none; stroke: #000; stroke-opacity: 0.15; opacity: 1;"></line><line transform="translate(100.5,-200)" x2="0" y2="200" style="fill: none; stroke: #000; stroke-opacity: 0.15; opacity: 1;"></line><line transform="translate(136.5,-200)" x2="0" y2="200" style="fill: none; stroke: #000; stroke-opacity: 0.15; opacity: 1;"></line><line transform="translate(171.5,-200)" x2="0" y2="200" style="fill: none; stroke: #000; stroke-opacity: 0.15; opacity: 1;"></line></g><g class="mark-rule" style="pointer-events: none;"><line transform="translate(29.5,0)" x2="0" y2="6" style="fill: none; stroke: #000; stroke-width: 1; opacity: 1;"></line><line transform="translate(64.5,0)" x2="0" y2="6" style="fill: none; stroke: #000; stroke-width: 1; opacity: 1;"></line><line transform="translate(100.5,0)" x2="0" y2="6" style="fill: none; stroke: #000; stroke-width: 1; opacity: 1;"></line><line transform="translate(136.5,0)" x2="0" y2="6" style="fill: none; stroke: #000; stroke-width: 1; opacity: 1;"></line><line transform="translate(171.5,0)" x2="0" y2="6" style="fill: none; stroke: #000; stroke-width: 1; opacity: 1;"></line></g><g class="mark-rule" style="pointer-events: none;"></g><g class="mark-text"><text text-anchor="middle" transform="translate(29.5,19)" style="font: 11px sans-serif; fill: #000; opacity: 1;">-1</text><text text-anchor="middle" transform="translate(64.5,19)" style="font: 11px sans-serif; fill: #000; opacity: 1;">-0.5</text><text text-anchor="middle" transform="translate(100.5,19)" style="font: 11px sans-serif; fill: #000; opacity: 1;">0</text><text text-anchor="middle" transform="translate(136.5,19)" style="font: 11px sans-serif; fill: #000; opacity: 1;">0.5</text><text text-anchor="middle" transform="translate(171.5,19)" style="font: 11px sans-serif; fill: #000; opacity: 1;">1</text></g><g class="mark-path" style="pointer-events: none;"><path transform="translate(0.5,0.5)" d="M0,6V0H200V6" style="fill: none; stroke: #000; stroke-width: 1;"></path></g><g class="mark-text"><text text-anchor="middle" transform="translate(100,35)" style="font: bold 11px sans-serif; fill: #000;">x</text></g></g></g><g class="mark-group"><g transform="translate(0,0)"><rect class="background" width="0" height="0" style="pointer-events: none; fill: none;"></rect><g class="mark-rule" style="pointer-events: none;"><line transform="translate(0,200.5)" x2="200" y2="0" style="fill: none; stroke: #000; stroke-opacity: 0.15; opacity: 1;"></line><line transform="translate(0,183.5)" x2="200" y2="0" style="fill: none; stroke: #000; stroke-opacity: 0.15; opacity: 1;"></line><line transform="translate(0,167.5)" x2="200" y2="0" style="fill: none; stroke: #000; stroke-opacity: 0.15; opacity: 1;"></line><line transform="translate(0,150.5)" x2="200" y2="0" style="fill: none; stroke: #000; stroke-opacity: 0.15; opacity: 1;"></line><line transform="translate(0,133.5)" x2="200" y2="0" style="fill: none; stroke: #000; stroke-opacity: 0.15; opacity: 1;"></line><line transform="translate(0,117.5)" x2="200" y2="0" style="fill: none; stroke: #000; stroke-opacity: 0.15; opacity: 1;"></line><line transform="translate(0,100.5)" x2="200" y2="0" style="fill: none; stroke: #000; stroke-opacity: 0.15; opacity: 1;"></line><line transform="translate(0,83.5)" x2="200" y2="0" style="fill: none; stroke: #000; stroke-opacity: 0.15; opacity: 1;"></line><line transform="translate(0,67.5)" x2="200" y2="0" style="fill: none; stroke: #000; stroke-opacity: 0.15; opacity: 1;"></line><line transform="translate(0,50.5)" x2="200" y2="0" style="fill: none; stroke: #000; stroke-opacity: 0.15; opacity: 1;"></line><line transform="translate(0,33.5)" x2="200" y2="0" style="fill: none; stroke: #000; stroke-opacity: 0.15; opacity: 1;"></line><line transform="translate(0,17.5)" x2="200" y2="0" style="fill: none; stroke: #000; stroke-opacity: 0.15; opacity: 1;"></line><line transform="translate(0,0.5)" x2="200" y2="0" style="fill: none; stroke: #000; stroke-opacity: 0.15; opacity: 1;"></line></g><g class="mark-rule" style="pointer-events: none;"><line transform="translate(-6,200.5)" x2="6" y2="0" style="fill: none; stroke: #000; stroke-width: 1; opacity: 1;"></line><line transform="translate(-6,183.5)" x2="6" y2="0" style="fill: none; stroke: #000; stroke-width: 1; opacity: 1;"></line><line transform="translate(-6,167.5)" x2="6" y2="0" style="fill: none; stroke: #000; stroke-width: 1; opacity: 1;"></line><line transform="translate(-6,150.5)" x2="6" y2="0" style="fill: none; stroke: #000; stroke-width: 1; opacity: 1;"></line><line transform="translate(-6,133.5)" x2="6" y2="0" style="fill: none; stroke: #000; stroke-width: 1; opacity: 1;"></line><line transform="translate(-6,117.5)" x2="6" y2="0" style="fill: none; stroke: #000; stroke-width: 1; opacity: 1;"></line><line transform="translate(-6,100.5)" x2="6" y2="0" style="fill: none; stroke: #000; stroke-width: 1; opacity: 1;"></line><line transform="translate(-6,83.5)" x2="6" y2="0" style="fill: none; stroke: #000; stroke-width: 1; opacity: 1;"></line><line transform="translate(-6,67.5)" x2="6" y2="0" style="fill: none; stroke: #000; stroke-width: 1; opacity: 1;"></line><line transform="translate(-6,50.5)" x2="6" y2="0" style="fill: none; stroke: #000; stroke-width: 1; opacity: 1;"></line><line transform="translate(-6,33.5)" x2="6" y2="0" style="fill: none; stroke: #000; stroke-width: 1; opacity: 1;"></line><line transform="translate(-6,17.5)" x2="6" y2="0" style="fill: none; stroke: #000; stroke-width: 1; opacity: 1;"></line><line transform="translate(-6,0.5)" x2="6" y2="0" style="fill: none; stroke: #000; stroke-width: 1; opacity: 1;"></line></g><g class="mark-rule" style="pointer-events: none;"></g><g class="mark-text"><text text-anchor="end" transform="translate(-9,203.5)" style="font: 11px sans-serif; fill: #000; opacity: 1;">-1.0</text><text text-anchor="end" transform="translate(-9,186.5)" style="font: 11px sans-serif; fill: #000; opacity: 1;">-0.80</text><text text-anchor="end" transform="translate(-9,170.5)" style="font: 11px sans-serif; fill: #000; opacity: 1;">-0.60</text><text text-anchor="end" transform="translate(-9,153.5)" style="font: 11px sans-serif; fill: #000; opacity: 1;">-0.40</text><text text-anchor="end" transform="translate(-9,136.5)" style="font: 11px sans-serif; fill: #000; opacity: 1;">-0.20</text><text text-anchor="end" transform="translate(-9,120.5)" style="font: 11px sans-serif; fill: #000; opacity: 1;">0.0</text><text text-anchor="end" transform="translate(-9,103.5)" style="font: 11px sans-serif; fill: #000; opacity: 1;">0.20</text><text text-anchor="end" transform="translate(-9,86.5)" style="font: 11px sans-serif; fill: #000; opacity: 1;">0.40</text><text text-anchor="end" transform="translate(-9,70.5)" style="font: 11px sans-serif; fill: #000; opacity: 1;">0.60</text><text text-anchor="end" transform="translate(-9,53.5)" style="font: 11px sans-serif; fill: #000; opacity: 1;">0.80</text><text text-anchor="end" transform="translate(-9,36.5)" style="font: 11px sans-serif; fill: #000; opacity: 1;">1.0</text><text text-anchor="end" transform="translate(-9,20.5)" style="font: 11px sans-serif; fill: #000; opacity: 1;">1.2</text><text text-anchor="end" transform="translate(-9,3.5)" style="font: 11px sans-serif; fill: #000; opacity: 1;">1.4</text></g><g class="mark-path" style="pointer-events: none;"><path transform="translate(0.5,0.5)" d="M-6,0H0V200H-6" style="fill: none; stroke: #000; stroke-width: 1;"></path></g><g class="mark-text"><text text-anchor="middle" transform="translate(-46,100) rotate(-90) translate(0,3)" style="font: bold 11px sans-serif; fill: #000;">y</text></g></g></g><g class="mark-symbol marks"><path transform="translate(171,41)" d="M0,1.692568750643269A1.692568750643269,1.692568750643269 0 1,1 0,-1.692568750643269A1.692568750643269,1.692568750643269 0 1,1 0,1.692568750643269Z" style="fill: transparent; stroke: #afc6a3; stroke-width: 2;"></path><path transform="translate(29,29)" d="M0,1.692568750643269A1.692568750643269,1.692568750643269 0 1,1 0,-1.692568750643269A1.692568750643269,1.692568750643269 0 1,1 0,1.692568750643269Z" style="fill: transparent; stroke: #afc6a3; stroke-width: 2;"></path><path transform="translate(172,38)" d="M0,1.692568750643269A1.692568750643269,1.692568750643269 0 1,1 0,-1.692568750643269A1.692568750643269,1.692568750643269 0 1,1 0,1.692568750643269Z" style="fill: transparent; stroke: #afc6a3; stroke-width: 2;"></path><path transform="translate(29,39)" d="M0,1.692568750643269A1.692568750643269,1.692568750643269 0 1,1 0,-1.692568750643269A1.692568750643269,1.692568750643269 0 1,1 0,1.692568750643269Z" style="fill: transparent; stroke: #afc6a3; stroke-width: 2;"></path><path transform="translate(171,20)" d="M0,1.692568750643269A1.692568750643269,1.692568750643269 0 1,1 0,-1.692568750643269A1.692568750643269,1.692568750643269 0 1,1 0,1.692568750643269Z" style="fill: transparent; stroke: #afc6a3; stroke-width: 2;"></path><path transform="translate(29,46)" d="M0,1.7841241161527712A1.7841241161527712,1.7841241161527712 0 1,1 0,-1.7841241161527712A1.7841241161527712,1.7841241161527712 0 1,1 0,1.7841241161527712Z" style="fill: transparent; stroke: #afc6a3; stroke-width: 2;"></path><path transform="translate(29,21)" d="M0,1.7841241161527712A1.7841241161527712,1.7841241161527712 0 1,1 0,-1.7841241161527712A1.7841241161527712,1.7841241161527712 0 1,1 0,1.7841241161527712Z" style="fill: transparent; stroke: #afc6a3; stroke-width: 2;"></path><path transform="translate(29,42)" d="M0,1.7841241161527712A1.7841241161527712,1.7841241161527712 0 1,1 0,-1.7841241161527712A1.7841241161527712,1.7841241161527712 0 1,1 0,1.7841241161527712Z" style="fill: transparent; stroke: #afc6a3; stroke-width: 2;"></path><path transform="translate(29,48)" d="M0,1.8712051592547776A1.8712051592547776,1.8712051592547776 0 1,1 0,-1.8712051592547776A1.8712051592547776,1.8712051592547776 0 1,1 0,1.8712051592547776Z" style="fill: transparent; stroke: #aec5a2; stroke-width: 2;"></path><path transform="translate(171,26)" d="M0,1.8712051592547776A1.8712051592547776,1.8712051592547776 0 1,1 0,-1.8712051592547776A1.8712051592547776,1.8712051592547776 0 1,1 0,1.8712051592547776Z" style="fill: transparent; stroke: #aec5a2; stroke-width: 2;"></path><path transform="translate(171,40)" d="M0,1.8712051592547776A1.8712051592547776,1.8712051592547776 0 1,1 0,-1.8712051592547776A1.8712051592547776,1.8712051592547776 0 1,1 0,1.8712051592547776Z" style="fill: transparent; stroke: #aec5a2; stroke-width: 2;"></path><path transform="translate(29,38)" d="M0,1.8712051592547776A1.8712051592547776,1.8712051592547776 0 1,1 0,-1.8712051592547776A1.8712051592547776,1.8712051592547776 0 1,1 0,1.8712051592547776Z" style="fill: transparent; stroke: #aec5a2; stroke-width: 2;"></path><path transform="translate(29,44)" d="M0,1.8712051592547776A1.8712051592547776,1.8712051592547776 0 1,1 0,-1.8712051592547776A1.8712051592547776,1.8712051592547776 0 1,1 0,1.8712051592547776Z" style="fill: transparent; stroke: #aec5a2; stroke-width: 2;"></path><path transform="translate(29,26)" d="M0,1.8712051592547776A1.8712051592547776,1.8712051592547776 0 1,1 0,-1.8712051592547776A1.8712051592547776,1.8712051592547776 0 1,1 0,1.8712051592547776Z" style="fill: transparent; stroke: #aec5a2; stroke-width: 2;"></path><path transform="translate(29,26)" d="M0,1.8712051592547776A1.8712051592547776,1.8712051592547776 0 1,1 0,-1.8712051592547776A1.8712051592547776,1.8712051592547776 0 1,1 0,1.8712051592547776Z" style="fill: transparent; stroke: #aec5a2; stroke-width: 2;"></path><path transform="translate(29,41)" d="M0,1.8712051592547776A1.8712051592547776,1.8712051592547776 0 1,1 0,-1.8712051592547776A1.8712051592547776,1.8712051592547776 0 1,1 0,1.8712051592547776Z" style="fill: transparent; stroke: #aec5a2; stroke-width: 2;"></path><path transform="translate(29,43)" d="M0,1.8712051592547776A1.8712051592547776,1.8712051592547776 0 1,1 0,-1.8712051592547776A1.8712051592547776,1.8712051592547776 0 1,1 0,1.8712051592547776Z" style="fill: transparent; stroke: #aec5a2; stroke-width: 2;"></path><path transform="translate(29,24)" d="M0,1.8712051592547776A1.8712051592547776,1.8712051592547776 0 1,1 0,-1.8712051592547776A1.8712051592547776,1.8712051592547776 0 1,1 0,1.8712051592547776Z" style="fill: transparent; stroke: #aec5a2; stroke-width: 2;"></path><path transform="translate(29,42)" d="M0,1.8712051592547776A1.8712051592547776,1.8712051592547776 0 1,1 0,-1.8712051592547776A1.8712051592547776,1.8712051592547776 0 1,1 0,1.8712051592547776Z" style="fill: transparent; stroke: #aec5a2; stroke-width: 2;"></path><path transform="translate(29,28)" d="M0,1.9544100476116797A1.9544100476116797,1.9544100476116797 0 1,1 0,-1.9544100476116797A1.9544100476116797,1.9544100476116797 0 1,1 0,1.9544100476116797Z" style="fill: transparent; stroke: #aec5a2; stroke-width: 2;"></path><path transform="translate(171,35)" d="M0,1.9544100476116797A1.9544100476116797,1.9544100476116797 0 1,1 0,-1.9544100476116797A1.9544100476116797,1.9544100476116797 0 1,1 0,1.9544100476116797Z" style="fill: transparent; stroke: #aec5a2; stroke-width: 2;"></path><path transform="translate(171,33)" d="M0,1.9544100476116797A1.9544100476116797,1.9544100476116797 0 1,1 0,-1.9544100476116797A1.9544100476116797,1.9544100476116797 0 1,1 0,1.9544100476116797Z" style="fill: transparent; stroke: #aec5a2; stroke-width: 2;"></path><path transform="translate(29,26)" d="M0,1.9544100476116797A1.9544100476116797,1.9544100476116797 0 1,1 0,-1.9544100476116797A1.9544100476116797,1.9544100476116797 0 1,1 0,1.9544100476116797Z" style="fill: transparent; stroke: #aec5a2; stroke-width: 2;"></path><path transform="translate(29,44)" d="M0,1.9544100476116797A1.9544100476116797,1.9544100476116797 0 1,1 0,-1.9544100476116797A1.9544100476116797,1.9544100476116797 0 1,1 0,1.9544100476116797Z" style="fill: transparent; stroke: #aec5a2; stroke-width: 2;"></path><path transform="translate(171,24)" d="M0,1.9544100476116797A1.9544100476116797,1.9544100476116797 0 1,1 0,-1.9544100476116797A1.9544100476116797,1.9544100476116797 0 1,1 0,1.9544100476116797Z" style="fill: transparent; stroke: #aec5a2; stroke-width: 2;"></path><path transform="translate(30,46)" d="M0,1.9544100476116797A1.9544100476116797,1.9544100476116797 0 1,1 0,-1.9544100476116797A1.9544100476116797,1.9544100476116797 0 1,1 0,1.9544100476116797Z" style="fill: transparent; stroke: #aec5a2; stroke-width: 2;"></path><path transform="translate(29,26)" d="M0,2.0342144725641096A2.0342144725641096,2.0342144725641096 0 1,1 0,-2.0342144725641096A2.0342144725641096,2.0342144725641096 0 1,1 0,2.0342144725641096Z" style="fill: transparent; stroke: #adc5a2; stroke-width: 2;"></path><path transform="translate(29,28)" d="M0,2.0342144725641096A2.0342144725641096,2.0342144725641096 0 1,1 0,-2.0342144725641096A2.0342144725641096,2.0342144725641096 0 1,1 0,2.0342144725641096Z" style="fill: transparent; stroke: #adc5a2; stroke-width: 2;"></path><path transform="translate(29,42)" d="M0,2.0342144725641096A2.0342144725641096,2.0342144725641096 0 1,1 0,-2.0342144725641096A2.0342144725641096,2.0342144725641096 0 1,1 0,2.0342144725641096Z" style="fill: transparent; stroke: #adc5a2; stroke-width: 2;"></path><path transform="translate(29,24)" d="M0,2.0342144725641096A2.0342144725641096,2.0342144725641096 0 1,1 0,-2.0342144725641096A2.0342144725641096,2.0342144725641096 0 1,1 0,2.0342144725641096Z" style="fill: transparent; stroke: #adc5a2; stroke-width: 2;"></path><path transform="translate(29,41)" d="M0,2.0342144725641096A2.0342144725641096,2.0342144725641096 0 1,1 0,-2.0342144725641096A2.0342144725641096,2.0342144725641096 0 1,1 0,2.0342144725641096Z" style="fill: transparent; stroke: #adc5a2; stroke-width: 2;"></path><path transform="translate(171,49)" d="M0,2.0342144725641096A2.0342144725641096,2.0342144725641096 0 1,1 0,-2.0342144725641096A2.0342144725641096,2.0342144725641096 0 1,1 0,2.0342144725641096Z" style="fill: transparent; stroke: #adc5a2; stroke-width: 2;"></path><path transform="translate(29,37)" d="M0,2.111004122822376A2.111004122822376,2.111004122822376 0 1,1 0,-2.111004122822376A2.111004122822376,2.111004122822376 0 1,1 0,2.111004122822376Z" style="fill: transparent; stroke: #adc5a1; stroke-width: 2;"></path><path transform="translate(29,43)" d="M0,2.111004122822376A2.111004122822376,2.111004122822376 0 1,1 0,-2.111004122822376A2.111004122822376,2.111004122822376 0 1,1 0,2.111004122822376Z" style="fill: transparent; stroke: #adc5a1; stroke-width: 2;"></path><path transform="translate(29,25)" d="M0,2.111004122822376A2.111004122822376,2.111004122822376 0 1,1 0,-2.111004122822376A2.111004122822376,2.111004122822376 0 1,1 0,2.111004122822376Z" style="fill: transparent; stroke: #adc5a1; stroke-width: 2;"></path><path transform="translate(29,42)" d="M0,2.111004122822376A2.111004122822376,2.111004122822376 0 1,1 0,-2.111004122822376A2.111004122822376,2.111004122822376 0 1,1 0,2.111004122822376Z" style="fill: transparent; stroke: #adc5a1; stroke-width: 2;"></path><path transform="translate(29,22)" d="M0,2.111004122822376A2.111004122822376,2.111004122822376 0 1,1 0,-2.111004122822376A2.111004122822376,2.111004122822376 0 1,1 0,2.111004122822376Z" style="fill: transparent; stroke: #adc5a1; stroke-width: 2;"></path><path transform="translate(29,27)" d="M0,2.111004122822376A2.111004122822376,2.111004122822376 0 1,1 0,-2.111004122822376A2.111004122822376,2.111004122822376 0 1,1 0,2.111004122822376Z" style="fill: transparent; stroke: #adc5a1; stroke-width: 2;"></path><path transform="translate(30,46)" d="M0,2.111004122822376A2.111004122822376,2.111004122822376 0 1,1 0,-2.111004122822376A2.111004122822376,2.111004122822376 0 1,1 0,2.111004122822376Z" style="fill: transparent; stroke: #adc5a1; stroke-width: 2;"></path><path transform="translate(29,35)" d="M0,2.111004122822376A2.111004122822376,2.111004122822376 0 1,1 0,-2.111004122822376A2.111004122822376,2.111004122822376 0 1,1 0,2.111004122822376Z" style="fill: transparent; stroke: #acc4a1; stroke-width: 2;"></path><path transform="translate(29,26)" d="M0,2.111004122822376A2.111004122822376,2.111004122822376 0 1,1 0,-2.111004122822376A2.111004122822376,2.111004122822376 0 1,1 0,2.111004122822376Z" style="fill: transparent; stroke: #acc4a1; stroke-width: 2;"></path><path transform="translate(29,23)" d="M0,2.111004122822376A2.111004122822376,2.111004122822376 0 1,1 0,-2.111004122822376A2.111004122822376,2.111004122822376 0 1,1 0,2.111004122822376Z" style="fill: transparent; stroke: #acc4a1; stroke-width: 2;"></path><path transform="translate(171,23)" d="M0,2.111004122822376A2.111004122822376,2.111004122822376 0 1,1 0,-2.111004122822376A2.111004122822376,2.111004122822376 0 1,1 0,2.111004122822376Z" style="fill: transparent; stroke: #acc4a1; stroke-width: 2;"></path><path transform="translate(171,32)" d="M0,2.1850968611841584A2.1850968611841584,2.1850968611841584 0 1,1 0,-2.1850968611841584A2.1850968611841584,2.1850968611841584 0 1,1 0,2.1850968611841584Z" style="fill: transparent; stroke: #acc4a1; stroke-width: 2;"></path><path transform="translate(29,25)" d="M0,2.1850968611841584A2.1850968611841584,2.1850968611841584 0 1,1 0,-2.1850968611841584A2.1850968611841584,2.1850968611841584 0 1,1 0,2.1850968611841584Z" style="fill: transparent; stroke: #acc4a1; stroke-width: 2;"></path><path transform="translate(29,32)" d="M0,2.1850968611841584A2.1850968611841584,2.1850968611841584 0 1,1 0,-2.1850968611841584A2.1850968611841584,2.1850968611841584 0 1,1 0,2.1850968611841584Z" style="fill: transparent; stroke: #acc4a1; stroke-width: 2;"></path><path transform="translate(29,31)" d="M0,2.1850968611841584A2.1850968611841584,2.1850968611841584 0 1,1 0,-2.1850968611841584A2.1850968611841584,2.1850968611841584 0 1,1 0,2.1850968611841584Z" style="fill: transparent; stroke: #acc4a1; stroke-width: 2;"></path><path transform="translate(29,29)" d="M0,2.1850968611841584A2.1850968611841584,2.1850968611841584 0 1,1 0,-2.1850968611841584A2.1850968611841584,2.1850968611841584 0 1,1 0,2.1850968611841584Z" style="fill: transparent; stroke: #acc4a1; stroke-width: 2;"></path><path transform="translate(29,28)" d="M0,2.1850968611841584A2.1850968611841584,2.1850968611841584 0 1,1 0,-2.1850968611841584A2.1850968611841584,2.1850968611841584 0 1,1 0,2.1850968611841584Z" style="fill: transparent; stroke: #acc4a1; stroke-width: 2;"></path><path transform="translate(172,39)" d="M0,2.1850968611841584A2.1850968611841584,2.1850968611841584 0 1,1 0,-2.1850968611841584A2.1850968611841584,2.1850968611841584 0 1,1 0,2.1850968611841584Z" style="fill: transparent; stroke: #acc4a1; stroke-width: 2;"></path><path transform="translate(29,29)" d="M0,2.1850968611841584A2.1850968611841584,2.1850968611841584 0 1,1 0,-2.1850968611841584A2.1850968611841584,2.1850968611841584 0 1,1 0,2.1850968611841584Z" style="fill: transparent; stroke: #acc4a1; stroke-width: 2;"></path><path transform="translate(29,41)" d="M0,2.1850968611841584A2.1850968611841584,2.1850968611841584 0 1,1 0,-2.1850968611841584A2.1850968611841584,2.1850968611841584 0 1,1 0,2.1850968611841584Z" style="fill: transparent; stroke: #acc4a1; stroke-width: 2;"></path><path transform="translate(29,29)" d="M0,2.1850968611841584A2.1850968611841584,2.1850968611841584 0 1,1 0,-2.1850968611841584A2.1850968611841584,2.1850968611841584 0 1,1 0,2.1850968611841584Z" style="fill: transparent; stroke: #acc4a1; stroke-width: 2;"></path><path transform="translate(29,31)" d="M0,2.1850968611841584A2.1850968611841584,2.1850968611841584 0 1,1 0,-2.1850968611841584A2.1850968611841584,2.1850968611841584 0 1,1 0,2.1850968611841584Z" style="fill: transparent; stroke: #acc4a1; stroke-width: 2;"></path><path transform="translate(29,25)" d="M0,2.256758334191025A2.256758334191025,2.256758334191025 0 1,1 0,-2.256758334191025A2.256758334191025,2.256758334191025 0 1,1 0,2.256758334191025Z" style="fill: transparent; stroke: #acc4a1; stroke-width: 2;"></path><path transform="translate(29,42)" d="M0,2.256758334191025A2.256758334191025,2.256758334191025 0 1,1 0,-2.256758334191025A2.256758334191025,2.256758334191025 0 1,1 0,2.256758334191025Z" style="fill: transparent; stroke: #acc4a1; stroke-width: 2;"></path><path transform="translate(29,40)" d="M0,2.256758334191025A2.256758334191025,2.256758334191025 0 1,1 0,-2.256758334191025A2.256758334191025,2.256758334191025 0 1,1 0,2.256758334191025Z" style="fill: transparent; stroke: #acc4a1; stroke-width: 2;"></path><path transform="translate(29,30)" d="M0,2.256758334191025A2.256758334191025,2.256758334191025 0 1,1 0,-2.256758334191025A2.256758334191025,2.256758334191025 0 1,1 0,2.256758334191025Z" style="fill: transparent; stroke: #acc4a1; stroke-width: 2;"></path><path transform="translate(170,16)" d="M0,2.326213245840639A2.326213245840639,2.326213245840639 0 1,1 0,-2.326213245840639A2.326213245840639,2.326213245840639 0 1,1 0,2.326213245840639Z" style="fill: transparent; stroke: #abc4a0; stroke-width: 2;"></path><path transform="translate(29,42)" d="M0,2.326213245840639A2.326213245840639,2.326213245840639 0 1,1 0,-2.326213245840639A2.326213245840639,2.326213245840639 0 1,1 0,2.326213245840639Z" style="fill: transparent; stroke: #abc4a0; stroke-width: 2;"></path><path transform="translate(171,47)" d="M0,2.326213245840639A2.326213245840639,2.326213245840639 0 1,1 0,-2.326213245840639A2.326213245840639,2.326213245840639 0 1,1 0,2.326213245840639Z" style="fill: transparent; stroke: #abc4a0; stroke-width: 2;"></path><path transform="translate(171,24)" d="M0,2.326213245840639A2.326213245840639,2.326213245840639 0 1,1 0,-2.326213245840639A2.326213245840639,2.326213245840639 0 1,1 0,2.326213245840639Z" style="fill: transparent; stroke: #abc4a0; stroke-width: 2;"></path><path transform="translate(29,37)" d="M0,2.393653682408596A2.393653682408596,2.393653682408596 0 1,1 0,-2.393653682408596A2.393653682408596,2.393653682408596 0 1,1 0,2.393653682408596Z" style="fill: transparent; stroke: #abc3a0; stroke-width: 2;"></path><path transform="translate(29,22)" d="M0,2.393653682408596A2.393653682408596,2.393653682408596 0 1,1 0,-2.393653682408596A2.393653682408596,2.393653682408596 0 1,1 0,2.393653682408596Z" style="fill: transparent; stroke: #abc3a0; stroke-width: 2;"></path><path transform="translate(29,23)" d="M0,2.393653682408596A2.393653682408596,2.393653682408596 0 1,1 0,-2.393653682408596A2.393653682408596,2.393653682408596 0 1,1 0,2.393653682408596Z" style="fill: transparent; stroke: #abc3a0; stroke-width: 2;"></path><path transform="translate(171,23)" d="M0,2.393653682408596A2.393653682408596,2.393653682408596 0 1,1 0,-2.393653682408596A2.393653682408596,2.393653682408596 0 1,1 0,2.393653682408596Z" style="fill: transparent; stroke: #abc3a0; stroke-width: 2;"></path><path transform="translate(29,44)" d="M0,2.4592453796829674A2.4592453796829674,2.4592453796829674 0 1,1 0,-2.4592453796829674A2.4592453796829674,2.4592453796829674 0 1,1 0,2.4592453796829674Z" style="fill: transparent; stroke: #aac3a0; stroke-width: 2;"></path><path transform="translate(29,22)" d="M0,2.4592453796829674A2.4592453796829674,2.4592453796829674 0 1,1 0,-2.4592453796829674A2.4592453796829674,2.4592453796829674 0 1,1 0,2.4592453796829674Z" style="fill: transparent; stroke: #aac3a0; stroke-width: 2;"></path><path transform="translate(29,29)" d="M0,2.4592453796829674A2.4592453796829674,2.4592453796829674 0 1,1 0,-2.4592453796829674A2.4592453796829674,2.4592453796829674 0 1,1 0,2.4592453796829674Z" style="fill: transparent; stroke: #aac3a0; stroke-width: 2;"></path><path transform="translate(171,46)" d="M0,2.4592453796829674A2.4592453796829674,2.4592453796829674 0 1,1 0,-2.4592453796829674A2.4592453796829674,2.4592453796829674 0 1,1 0,2.4592453796829674Z" style="fill: transparent; stroke: #aac3a0; stroke-width: 2;"></path><path transform="translate(29,31)" d="M0,2.5231325220201604A2.5231325220201604,2.5231325220201604 0 1,1 0,-2.5231325220201604A2.5231325220201604,2.5231325220201604 0 1,1 0,2.5231325220201604Z" style="fill: transparent; stroke: #aac39f; stroke-width: 2;"></path><path transform="translate(29,38)" d="M0,2.5231325220201604A2.5231325220201604,2.5231325220201604 0 1,1 0,-2.5231325220201604A2.5231325220201604,2.5231325220201604 0 1,1 0,2.5231325220201604Z" style="fill: transparent; stroke: #aac39f; stroke-width: 2;"></path><path transform="translate(29,39)" d="M0,2.5231325220201604A2.5231325220201604,2.5231325220201604 0 1,1 0,-2.5231325220201604A2.5231325220201604,2.5231325220201604 0 1,1 0,2.5231325220201604Z" style="fill: transparent; stroke: #aac39f; stroke-width: 2;"></path><path transform="translate(29,34)" d="M0,2.5231325220201604A2.5231325220201604,2.5231325220201604 0 1,1 0,-2.5231325220201604A2.5231325220201604,2.5231325220201604 0 1,1 0,2.5231325220201604Z" style="fill: transparent; stroke: #aac39f; stroke-width: 2;"></path><path transform="translate(29,42)" d="M0,2.5231325220201604A2.5231325220201604,2.5231325220201604 0 1,1 0,-2.5231325220201604A2.5231325220201604,2.5231325220201604 0 1,1 0,2.5231325220201604Z" style="fill: transparent; stroke: #aac39f; stroke-width: 2;"></path><path transform="translate(29,43)" d="M0,2.5854414729132054A2.5854414729132054,2.5854414729132054 0 1,1 0,-2.5854414729132054A2.5854414729132054,2.5854414729132054 0 1,1 0,2.5854414729132054Z" style="fill: transparent; stroke: #a9c39f; stroke-width: 2;"></path><path transform="translate(29,45)" d="M0,2.5854414729132054A2.5854414729132054,2.5854414729132054 0 1,1 0,-2.5854414729132054A2.5854414729132054,2.5854414729132054 0 1,1 0,2.5854414729132054Z" style="fill: transparent; stroke: #a9c39f; stroke-width: 2;"></path><path transform="translate(171,24)" d="M0,2.5854414729132054A2.5854414729132054,2.5854414729132054 0 1,1 0,-2.5854414729132054A2.5854414729132054,2.5854414729132054 0 1,1 0,2.5854414729132054Z" style="fill: transparent; stroke: #a9c39f; stroke-width: 2;"></path><path transform="translate(29,21)" d="M0,2.5854414729132054A2.5854414729132054,2.5854414729132054 0 1,1 0,-2.5854414729132054A2.5854414729132054,2.5854414729132054 0 1,1 0,2.5854414729132054Z" style="fill: transparent; stroke: #a9c39f; stroke-width: 2;"></path><path transform="translate(171,40)" d="M0,2.6462837142006137A2.6462837142006137,2.6462837142006137 0 1,1 0,-2.6462837142006137A2.6462837142006137,2.6462837142006137 0 1,1 0,2.6462837142006137Z" style="fill: transparent; stroke: #a9c29f; stroke-width: 2;"></path><path transform="translate(29,35)" d="M0,2.7057581899030048A2.7057581899030048,2.7057581899030048 0 1,1 0,-2.7057581899030048A2.7057581899030048,2.7057581899030048 0 1,1 0,2.7057581899030048Z" style="fill: transparent; stroke: #a9c29e; stroke-width: 2;"></path><path transform="translate(171,30)" d="M0,2.7057581899030048A2.7057581899030048,2.7057581899030048 0 1,1 0,-2.7057581899030048A2.7057581899030048,2.7057581899030048 0 1,1 0,2.7057581899030048Z" style="fill: transparent; stroke: #a9c29e; stroke-width: 2;"></path><path transform="translate(29,26)" d="M0,2.7057581899030048A2.7057581899030048,2.7057581899030048 0 1,1 0,-2.7057581899030048A2.7057581899030048,2.7057581899030048 0 1,1 0,2.7057581899030048Z" style="fill: transparent; stroke: #a9c29e; stroke-width: 2;"></path><path transform="translate(29,23)" d="M0,2.7057581899030048A2.7057581899030048,2.7057581899030048 0 1,1 0,-2.7057581899030048A2.7057581899030048,2.7057581899030048 0 1,1 0,2.7057581899030048Z" style="fill: transparent; stroke: #a9c29e; stroke-width: 2;"></path><path transform="translate(29,42)" d="M0,2.7057581899030048A2.7057581899030048,2.7057581899030048 0 1,1 0,-2.7057581899030048A2.7057581899030048,2.7057581899030048 0 1,1 0,2.7057581899030048Z" style="fill: transparent; stroke: #a8c29e; stroke-width: 2;"></path><path transform="translate(29,38)" d="M0,2.7057581899030048A2.7057581899030048,2.7057581899030048 0 1,1 0,-2.7057581899030048A2.7057581899030048,2.7057581899030048 0 1,1 0,2.7057581899030048Z" style="fill: transparent; stroke: #a8c29e; stroke-width: 2;"></path><path transform="translate(29,40)" d="M0,2.7057581899030048A2.7057581899030048,2.7057581899030048 0 1,1 0,-2.7057581899030048A2.7057581899030048,2.7057581899030048 0 1,1 0,2.7057581899030048Z" style="fill: transparent; stroke: #a8c29e; stroke-width: 2;"></path><path transform="translate(29,43)" d="M0,2.7057581899030048A2.7057581899030048,2.7057581899030048 0 1,1 0,-2.7057581899030048A2.7057581899030048,2.7057581899030048 0 1,1 0,2.7057581899030048Z" style="fill: transparent; stroke: #a8c29e; stroke-width: 2;"></path><path transform="translate(97,190)" d="M0,2.7057581899030048A2.7057581899030048,2.7057581899030048 0 1,1 0,-2.7057581899030048A2.7057581899030048,2.7057581899030048 0 1,1 0,2.7057581899030048Z" style="fill: transparent; stroke: #a8c29e; stroke-width: 2;"></path><path transform="translate(29,40)" d="M0,2.763953195770684A2.763953195770684,2.763953195770684 0 1,1 0,-2.763953195770684A2.763953195770684,2.763953195770684 0 1,1 0,2.763953195770684Z" style="fill: transparent; stroke: #a8c29e; stroke-width: 2;"></path><path transform="translate(29,40)" d="M0,2.763953195770684A2.763953195770684,2.763953195770684 0 1,1 0,-2.763953195770684A2.763953195770684,2.763953195770684 0 1,1 0,2.763953195770684Z" style="fill: transparent; stroke: #a8c29e; stroke-width: 2;"></path><path transform="translate(171,21)" d="M0,2.763953195770684A2.763953195770684,2.763953195770684 0 1,1 0,-2.763953195770684A2.763953195770684,2.763953195770684 0 1,1 0,2.763953195770684Z" style="fill: transparent; stroke: #a8c29e; stroke-width: 2;"></path><path transform="translate(29,41)" d="M0,2.8209479177387813A2.8209479177387813,2.8209479177387813 0 1,1 0,-2.8209479177387813A2.8209479177387813,2.8209479177387813 0 1,1 0,2.8209479177387813Z" style="fill: transparent; stroke: #a7c19d; stroke-width: 2;"></path><path transform="translate(29,27)" d="M0,2.8209479177387813A2.8209479177387813,2.8209479177387813 0 1,1 0,-2.8209479177387813A2.8209479177387813,2.8209479177387813 0 1,1 0,2.8209479177387813Z" style="fill: transparent; stroke: #a7c19d; stroke-width: 2;"></path><path transform="translate(29,34)" d="M0,2.876813695875796A2.876813695875796,2.876813695875796 0 1,1 0,-2.876813695875796A2.876813695875796,2.876813695875796 0 1,1 0,2.876813695875796Z" style="fill: transparent; stroke: #a7c19d; stroke-width: 2;"></path><path transform="translate(29,46)" d="M0,2.876813695875796A2.876813695875796,2.876813695875796 0 1,1 0,-2.876813695875796A2.876813695875796,2.876813695875796 0 1,1 0,2.876813695875796Z" style="fill: transparent; stroke: #a7c19d; stroke-width: 2;"></path><path transform="translate(29,42)" d="M0,2.876813695875796A2.876813695875796,2.876813695875796 0 1,1 0,-2.876813695875796A2.876813695875796,2.876813695875796 0 1,1 0,2.876813695875796Z" style="fill: transparent; stroke: #a7c19d; stroke-width: 2;"></path><path transform="translate(29,38)" d="M0,2.876813695875796A2.876813695875796,2.876813695875796 0 1,1 0,-2.876813695875796A2.876813695875796,2.876813695875796 0 1,1 0,2.876813695875796Z" style="fill: transparent; stroke: #a7c19d; stroke-width: 2;"></path><path transform="translate(29,34)" d="M0,2.9316150714175193A2.9316150714175193,2.9316150714175193 0 1,1 0,-2.9316150714175193A2.9316150714175193,2.9316150714175193 0 1,1 0,2.9316150714175193Z" style="fill: transparent; stroke: #a6c19d; stroke-width: 2;"></path><path transform="translate(29,41)" d="M0,2.9316150714175193A2.9316150714175193,2.9316150714175193 0 1,1 0,-2.9316150714175193A2.9316150714175193,2.9316150714175193 0 1,1 0,2.9316150714175193Z" style="fill: transparent; stroke: #a6c19d; stroke-width: 2;"></path><path transform="translate(29,42)" d="M0,2.9316150714175193A2.9316150714175193,2.9316150714175193 0 1,1 0,-2.9316150714175193A2.9316150714175193,2.9316150714175193 0 1,1 0,2.9316150714175193Z" style="fill: transparent; stroke: #a6c19d; stroke-width: 2;"></path><path transform="translate(29,37)" d="M0,2.9316150714175193A2.9316150714175193,2.9316150714175193 0 1,1 0,-2.9316150714175193A2.9316150714175193,2.9316150714175193 0 1,1 0,2.9316150714175193Z" style="fill: transparent; stroke: #a6c19d; stroke-width: 2;"></path><path transform="translate(29,46)" d="M0,2.9316150714175193A2.9316150714175193,2.9316150714175193 0 1,1 0,-2.9316150714175193A2.9316150714175193,2.9316150714175193 0 1,1 0,2.9316150714175193Z" style="fill: transparent; stroke: #a6c19d; stroke-width: 2;"></path><path transform="translate(170,16)" d="M0,2.985410660720923A2.985410660720923,2.985410660720923 0 1,1 0,-2.985410660720923A2.985410660720923,2.985410660720923 0 1,1 0,2.985410660720923Z" style="fill: transparent; stroke: #a6c19c; stroke-width: 2;"></path><path transform="translate(172,32)" d="M0,2.985410660720923A2.985410660720923,2.985410660720923 0 1,1 0,-2.985410660720923A2.985410660720923,2.985410660720923 0 1,1 0,2.985410660720923Z" style="fill: transparent; stroke: #a6c19c; stroke-width: 2;"></path><path transform="translate(29,31)" d="M0,2.985410660720923A2.985410660720923,2.985410660720923 0 1,1 0,-2.985410660720923A2.985410660720923,2.985410660720923 0 1,1 0,2.985410660720923Z" style="fill: transparent; stroke: #a6c19c; stroke-width: 2;"></path><path transform="translate(171,46)" d="M0,2.985410660720923A2.985410660720923,2.985410660720923 0 1,1 0,-2.985410660720923A2.985410660720923,2.985410660720923 0 1,1 0,2.985410660720923Z" style="fill: transparent; stroke: #a6c19c; stroke-width: 2;"></path><path transform="translate(29,28)" d="M0,3.0382538898732494A3.0382538898732494,3.0382538898732494 0 1,1 0,-3.0382538898732494A3.0382538898732494,3.0382538898732494 0 1,1 0,3.0382538898732494Z" style="fill: transparent; stroke: #a6c09c; stroke-width: 2;"></path><path transform="translate(29,36)" d="M0,3.0382538898732494A3.0382538898732494,3.0382538898732494 0 1,1 0,-3.0382538898732494A3.0382538898732494,3.0382538898732494 0 1,1 0,3.0382538898732494Z" style="fill: transparent; stroke: #a6c09c; stroke-width: 2;"></path><path transform="translate(172,32)" d="M0,3.0382538898732494A3.0382538898732494,3.0382538898732494 0 1,1 0,-3.0382538898732494A3.0382538898732494,3.0382538898732494 0 1,1 0,3.0382538898732494Z" style="fill: transparent; stroke: #a6c09c; stroke-width: 2;"></path><path transform="translate(171,44)" d="M0,3.0382538898732494A3.0382538898732494,3.0382538898732494 0 1,1 0,-3.0382538898732494A3.0382538898732494,3.0382538898732494 0 1,1 0,3.0382538898732494Z" style="fill: transparent; stroke: #a6c09c; stroke-width: 2;"></path><path transform="translate(29,40)" d="M0,3.0901936161855166A3.0901936161855166,3.0901936161855166 0 1,1 0,-3.0901936161855166A3.0901936161855166,3.0901936161855166 0 1,1 0,3.0901936161855166Z" style="fill: transparent; stroke: #a5c09c; stroke-width: 2;"></path><path transform="translate(29,45)" d="M0,3.0901936161855166A3.0901936161855166,3.0901936161855166 0 1,1 0,-3.0901936161855166A3.0901936161855166,3.0901936161855166 0 1,1 0,3.0901936161855166Z" style="fill: transparent; stroke: #a5c09c; stroke-width: 2;"></path><path transform="translate(29,23)" d="M0,3.0901936161855166A3.0901936161855166,3.0901936161855166 0 1,1 0,-3.0901936161855166A3.0901936161855166,3.0901936161855166 0 1,1 0,3.0901936161855166Z" style="fill: transparent; stroke: #a5c09c; stroke-width: 2;"></path><path transform="translate(29,35)" d="M0,3.141274657157109A3.141274657157109,3.141274657157109 0 1,1 0,-3.141274657157109A3.141274657157109,3.141274657157109 0 1,1 0,3.141274657157109Z" style="fill: transparent; stroke: #a5c09c; stroke-width: 2;"></path><path transform="translate(29,38)" d="M0,3.141274657157109A3.141274657157109,3.141274657157109 0 1,1 0,-3.141274657157109A3.141274657157109,3.141274657157109 0 1,1 0,3.141274657157109Z" style="fill: transparent; stroke: #a5c09c; stroke-width: 2;"></path><path transform="translate(29,39)" d="M0,3.141274657157109A3.141274657157109,3.141274657157109 0 1,1 0,-3.141274657157109A3.141274657157109,3.141274657157109 0 1,1 0,3.141274657157109Z" style="fill: transparent; stroke: #a5c09c; stroke-width: 2;"></path><path transform="translate(29,25)" d="M0,3.141274657157109A3.141274657157109,3.141274657157109 0 1,1 0,-3.141274657157109A3.141274657157109,3.141274657157109 0 1,1 0,3.141274657157109Z" style="fill: transparent; stroke: #a5c09c; stroke-width: 2;"></path><path transform="translate(29,43)" d="M0,3.141274657157109A3.141274657157109,3.141274657157109 0 1,1 0,-3.141274657157109A3.141274657157109,3.141274657157109 0 1,1 0,3.141274657157109Z" style="fill: transparent; stroke: #a5c09c; stroke-width: 2;"></path><path transform="translate(29,42)" d="M0,3.141274657157109A3.141274657157109,3.141274657157109 0 1,1 0,-3.141274657157109A3.141274657157109,3.141274657157109 0 1,1 0,3.141274657157109Z" style="fill: transparent; stroke: #a5c09c; stroke-width: 2;"></path><path transform="translate(29,24)" d="M0,3.1915382432114616A3.1915382432114616,3.1915382432114616 0 1,1 0,-3.1915382432114616A3.1915382432114616,3.1915382432114616 0 1,1 0,3.1915382432114616Z" style="fill: transparent; stroke: #a4c09b; stroke-width: 2;"></path><path transform="translate(29,38)" d="M0,3.1915382432114616A3.1915382432114616,3.1915382432114616 0 1,1 0,-3.1915382432114616A3.1915382432114616,3.1915382432114616 0 1,1 0,3.1915382432114616Z" style="fill: transparent; stroke: #a4c09b; stroke-width: 2;"></path><path transform="translate(29,23)" d="M0,3.1915382432114616A3.1915382432114616,3.1915382432114616 0 1,1 0,-3.1915382432114616A3.1915382432114616,3.1915382432114616 0 1,1 0,3.1915382432114616Z" style="fill: transparent; stroke: #a4c09b; stroke-width: 2;"></path><path transform="translate(29,45)" d="M0,3.1915382432114616A3.1915382432114616,3.1915382432114616 0 1,1 0,-3.1915382432114616A3.1915382432114616,3.1915382432114616 0 1,1 0,3.1915382432114616Z" style="fill: transparent; stroke: #a4bf9b; stroke-width: 2;"></path><path transform="translate(29,23)" d="M0,3.1915382432114616A3.1915382432114616,3.1915382432114616 0 1,1 0,-3.1915382432114616A3.1915382432114616,3.1915382432114616 0 1,1 0,3.1915382432114616Z" style="fill: transparent; stroke: #a4bf9b; stroke-width: 2;"></path><path transform="translate(29,22)" d="M0,3.2410224072142872A3.2410224072142872,3.2410224072142872 0 1,1 0,-3.2410224072142872A3.2410224072142872,3.2410224072142872 0 1,1 0,3.2410224072142872Z" style="fill: transparent; stroke: #a4bf9b; stroke-width: 2;"></path><path transform="translate(29,26)" d="M0,3.2410224072142872A3.2410224072142872,3.2410224072142872 0 1,1 0,-3.2410224072142872A3.2410224072142872,3.2410224072142872 0 1,1 0,3.2410224072142872Z" style="fill: transparent; stroke: #a4bf9b; stroke-width: 2;"></path><path transform="translate(29,27)" d="M0,3.2410224072142872A3.2410224072142872,3.2410224072142872 0 1,1 0,-3.2410224072142872A3.2410224072142872,3.2410224072142872 0 1,1 0,3.2410224072142872Z" style="fill: transparent; stroke: #a4bf9b; stroke-width: 2;"></path><path transform="translate(29,38)" d="M0,3.2410224072142872A3.2410224072142872,3.2410224072142872 0 1,1 0,-3.2410224072142872A3.2410224072142872,3.2410224072142872 0 1,1 0,3.2410224072142872Z" style="fill: transparent; stroke: #a4bf9b; stroke-width: 2;"></path><path transform="translate(171,23)" d="M0,3.2410224072142872A3.2410224072142872,3.2410224072142872 0 1,1 0,-3.2410224072142872A3.2410224072142872,3.2410224072142872 0 1,1 0,3.2410224072142872Z" style="fill: transparent; stroke: #a4bf9b; stroke-width: 2;"></path><path transform="translate(171,44)" d="M0,3.2410224072142872A3.2410224072142872,3.2410224072142872 0 1,1 0,-3.2410224072142872A3.2410224072142872,3.2410224072142872 0 1,1 0,3.2410224072142872Z" style="fill: transparent; stroke: #a4bf9b; stroke-width: 2;"></path><path transform="translate(29,42)" d="M0,3.2897623212397704A3.2897623212397704,3.2897623212397704 0 1,1 0,-3.2897623212397704A3.2897623212397704,3.2897623212397704 0 1,1 0,3.2897623212397704Z" style="fill: transparent; stroke: #a3bf9a; stroke-width: 2;"></path><path transform="translate(29,27)" d="M0,3.3377905890622728A3.3377905890622728,3.3377905890622728 0 1,1 0,-3.3377905890622728A3.3377905890622728,3.3377905890622728 0 1,1 0,3.3377905890622728Z" style="fill: transparent; stroke: #a3bf9a; stroke-width: 2;"></path><path transform="translate(29,39)" d="M0,3.3377905890622728A3.3377905890622728,3.3377905890622728 0 1,1 0,-3.3377905890622728A3.3377905890622728,3.3377905890622728 0 1,1 0,3.3377905890622728Z" style="fill: transparent; stroke: #a3bf9a; stroke-width: 2;"></path><path transform="translate(29,44)" d="M0,3.3377905890622728A3.3377905890622728,3.3377905890622728 0 1,1 0,-3.3377905890622728A3.3377905890622728,3.3377905890622728 0 1,1 0,3.3377905890622728Z" style="fill: transparent; stroke: #a3bf9a; stroke-width: 2;"></path><path transform="translate(97,25)" d="M0,3.3377905890622728A3.3377905890622728,3.3377905890622728 0 1,1 0,-3.3377905890622728A3.3377905890622728,3.3377905890622728 0 1,1 0,3.3377905890622728Z" style="fill: transparent; stroke: #a3bf9a; stroke-width: 2;"></path><path transform="translate(29,45)" d="M0,3.385137501286538A3.385137501286538,3.385137501286538 0 1,1 0,-3.385137501286538A3.385137501286538,3.385137501286538 0 1,1 0,3.385137501286538Z" style="fill: transparent; stroke: #a2be9a; stroke-width: 2;"></path><path transform="translate(172,28)" d="M0,3.385137501286538A3.385137501286538,3.385137501286538 0 1,1 0,-3.385137501286538A3.385137501286538,3.385137501286538 0 1,1 0,3.385137501286538Z" style="fill: transparent; stroke: #a2be9a; stroke-width: 2;"></path><path transform="translate(29,40)" d="M0,3.431831258788849A3.431831258788849,3.431831258788849 0 1,1 0,-3.431831258788849A3.431831258788849,3.431831258788849 0 1,1 0,3.431831258788849Z" style="fill: transparent; stroke: #a2be99; stroke-width: 2;"></path><path transform="translate(29,21)" d="M0,3.477898169151024A3.477898169151024,3.477898169151024 0 1,1 0,-3.477898169151024A3.477898169151024,3.477898169151024 0 1,1 0,3.477898169151024Z" style="fill: transparent; stroke: #a1be99; stroke-width: 2;"></path><path transform="translate(29,42)" d="M0,3.477898169151024A3.477898169151024,3.477898169151024 0 1,1 0,-3.477898169151024A3.477898169151024,3.477898169151024 0 1,1 0,3.477898169151024Z" style="fill: transparent; stroke: #a1be99; stroke-width: 2;"></path><path transform="translate(29,40)" d="M0,3.477898169151024A3.477898169151024,3.477898169151024 0 1,1 0,-3.477898169151024A3.477898169151024,3.477898169151024 0 1,1 0,3.477898169151024Z" style="fill: transparent; stroke: #a1be99; stroke-width: 2;"></path><path transform="translate(170,48)" d="M0,3.523362819972964A3.523362819972964,3.523362819972964 0 1,1 0,-3.523362819972964A3.523362819972964,3.523362819972964 0 1,1 0,3.523362819972964Z" style="fill: transparent; stroke: #a1be99; stroke-width: 2;"></path><path transform="translate(29,29)" d="M0,3.523362819972964A3.523362819972964,3.523362819972964 0 1,1 0,-3.523362819972964A3.523362819972964,3.523362819972964 0 1,1 0,3.523362819972964Z" style="fill: transparent; stroke: #a1be99; stroke-width: 2;"></path><path transform="translate(29,40)" d="M0,3.523362819972964A3.523362819972964,3.523362819972964 0 1,1 0,-3.523362819972964A3.523362819972964,3.523362819972964 0 1,1 0,3.523362819972964Z" style="fill: transparent; stroke: #a1be99; stroke-width: 2;"></path><path transform="translate(171,22)" d="M0,3.523362819972964A3.523362819972964,3.523362819972964 0 1,1 0,-3.523362819972964A3.523362819972964,3.523362819972964 0 1,1 0,3.523362819972964Z" style="fill: transparent; stroke: #a1be99; stroke-width: 2;"></path><path transform="translate(29,41)" d="M0,3.5682482323055424A3.5682482323055424,3.5682482323055424 0 1,1 0,-3.5682482323055424A3.5682482323055424,3.5682482323055424 0 1,1 0,3.5682482323055424Z" style="fill: transparent; stroke: #a1bd98; stroke-width: 2;"></path><path transform="translate(29,26)" d="M0,3.6125759969217834A3.6125759969217834,3.6125759969217834 0 1,1 0,-3.6125759969217834A3.6125759969217834,3.6125759969217834 0 1,1 0,3.6125759969217834Z" style="fill: transparent; stroke: #a0bd98; stroke-width: 2;"></path><path transform="translate(29,38)" d="M0,3.6125759969217834A3.6125759969217834,3.6125759969217834 0 1,1 0,-3.6125759969217834A3.6125759969217834,3.6125759969217834 0 1,1 0,3.6125759969217834Z" style="fill: transparent; stroke: #a0bd98; stroke-width: 2;"></path><path transform="translate(29,25)" d="M0,3.6125759969217834A3.6125759969217834,3.6125759969217834 0 1,1 0,-3.6125759969217834A3.6125759969217834,3.6125759969217834 0 1,1 0,3.6125759969217834Z" style="fill: transparent; stroke: #a0bd98; stroke-width: 2;"></path><path transform="translate(29,42)" d="M0,3.6125759969217834A3.6125759969217834,3.6125759969217834 0 1,1 0,-3.6125759969217834A3.6125759969217834,3.6125759969217834 0 1,1 0,3.6125759969217834Z" style="fill: transparent; stroke: #a0bd98; stroke-width: 2;"></path><path transform="translate(103,190)" d="M0,3.6125759969217834A3.6125759969217834,3.6125759969217834 0 1,1 0,-3.6125759969217834A3.6125759969217834,3.6125759969217834 0 1,1 0,3.6125759969217834Z" style="fill: transparent; stroke: #a0bd98; stroke-width: 2;"></path><path transform="translate(100,31)" d="M0,3.656366395715726A3.656366395715726,3.656366395715726 0 1,1 0,-3.656366395715726A3.656366395715726,3.656366395715726 0 1,1 0,3.656366395715726Z" style="fill: transparent; stroke: #9fbd98; stroke-width: 2;"></path><path transform="translate(29,46)" d="M0,3.6996385101659595A3.6996385101659595,3.6996385101659595 0 1,1 0,-3.6996385101659595A3.6996385101659595,3.6996385101659595 0 1,1 0,3.6996385101659595Z" style="fill: transparent; stroke: #9fbc97; stroke-width: 2;"></path><path transform="translate(29,37)" d="M0,3.7846987830302403A3.7846987830302403,3.7846987830302403 0 1,1 0,-3.7846987830302403A3.7846987830302403,3.7846987830302403 0 1,1 0,3.7846987830302403Z" style="fill: transparent; stroke: #9ebc97; stroke-width: 2;"></path><path transform="translate(29,44)" d="M0,3.7846987830302403A3.7846987830302403,3.7846987830302403 0 1,1 0,-3.7846987830302403A3.7846987830302403,3.7846987830302403 0 1,1 0,3.7846987830302403Z" style="fill: transparent; stroke: #9ebc97; stroke-width: 2;"></path><path transform="translate(29,43)" d="M0,3.826519928662906A3.826519928662906,3.826519928662906 0 1,1 0,-3.826519928662906A3.826519928662906,3.826519928662906 0 1,1 0,3.826519928662906Z" style="fill: transparent; stroke: #9ebb96; stroke-width: 2;"></path><path transform="translate(29,24)" d="M0,3.8678889139475245A3.8678889139475245,3.8678889139475245 0 1,1 0,-3.8678889139475245A3.8678889139475245,3.8678889139475245 0 1,1 0,3.8678889139475245Z" style="fill: transparent; stroke: #9dbb96; stroke-width: 2;"></path><path transform="translate(29,21)" d="M0,3.8678889139475245A3.8678889139475245,3.8678889139475245 0 1,1 0,-3.8678889139475245A3.8678889139475245,3.8678889139475245 0 1,1 0,3.8678889139475245Z" style="fill: transparent; stroke: #9dbb96; stroke-width: 2;"></path><path transform="translate(29,47)" d="M0,3.8678889139475245A3.8678889139475245,3.8678889139475245 0 1,1 0,-3.8678889139475245A3.8678889139475245,3.8678889139475245 0 1,1 0,3.8678889139475245Z" style="fill: transparent; stroke: #9dbb96; stroke-width: 2;"></path><path transform="translate(170,22)" d="M0,3.949327084834294A3.949327084834294,3.949327084834294 0 1,1 0,-3.949327084834294A3.949327084834294,3.949327084834294 0 1,1 0,3.949327084834294Z" style="fill: transparent; stroke: #9cbb95; stroke-width: 2;"></path><path transform="translate(29,42)" d="M0,3.949327084834294A3.949327084834294,3.949327084834294 0 1,1 0,-3.949327084834294A3.949327084834294,3.949327084834294 0 1,1 0,3.949327084834294Z" style="fill: transparent; stroke: #9cbb95; stroke-width: 2;"></path><path transform="translate(29,42)" d="M0,3.949327084834294A3.949327084834294,3.949327084834294 0 1,1 0,-3.949327084834294A3.949327084834294,3.949327084834294 0 1,1 0,3.949327084834294Z" style="fill: transparent; stroke: #9cbb95; stroke-width: 2;"></path><path transform="translate(29,37)" d="M0,4.029119531035698A4.029119531035698,4.029119531035698 0 1,1 0,-4.029119531035698A4.029119531035698,4.029119531035698 0 1,1 0,4.029119531035698Z" style="fill: transparent; stroke: #9bba95; stroke-width: 2;"></path><path transform="translate(29,33)" d="M0,4.029119531035698A4.029119531035698,4.029119531035698 0 1,1 0,-4.029119531035698A4.029119531035698,4.029119531035698 0 1,1 0,4.029119531035698Z" style="fill: transparent; stroke: #9bba94; stroke-width: 2;"></path><path transform="translate(29,37)" d="M0,4.068428945128219A4.068428945128219,4.068428945128219 0 1,1 0,-4.068428945128219A4.068428945128219,4.068428945128219 0 1,1 0,4.068428945128219Z" style="fill: transparent; stroke: #9bba94; stroke-width: 2;"></path><path transform="translate(97,190)" d="M0,4.068428945128219A4.068428945128219,4.068428945128219 0 1,1 0,-4.068428945128219A4.068428945128219,4.068428945128219 0 1,1 0,4.068428945128219Z" style="fill: transparent; stroke: #9bba94; stroke-width: 2;"></path><path transform="translate(29,29)" d="M0,4.1073621666150775A4.1073621666150775,4.1073621666150775 0 1,1 0,-4.1073621666150775A4.1073621666150775,4.1073621666150775 0 1,1 0,4.1073621666150775Z" style="fill: transparent; stroke: #9ab994; stroke-width: 2;"></path><path transform="translate(97,23)" d="M0,4.145929793656026A4.145929793656026,4.145929793656026 0 1,1 0,-4.145929793656026A4.145929793656026,4.145929793656026 0 1,1 0,4.145929793656026Z" style="fill: transparent; stroke: #9ab993; stroke-width: 2;"></path><path transform="translate(29,46)" d="M0,4.222008245644752A4.222008245644752,4.222008245644752 0 1,1 0,-4.222008245644752A4.222008245644752,4.222008245644752 0 1,1 0,4.222008245644752Z" style="fill: transparent; stroke: #99b993; stroke-width: 2;"></path><path transform="translate(29,41)" d="M0,4.296739856991561A4.296739856991561,4.296739856991561 0 1,1 0,-4.296739856991561A4.296739856991561,4.296739856991561 0 1,1 0,4.296739856991561Z" style="fill: transparent; stroke: #98b892; stroke-width: 2;"></path><path transform="translate(29,31)" d="M0,4.296739856991561A4.296739856991561,4.296739856991561 0 1,1 0,-4.296739856991561A4.296739856991561,4.296739856991561 0 1,1 0,4.296739856991561Z" style="fill: transparent; stroke: #98b892; stroke-width: 2;"></path><path transform="translate(29,39)" d="M0,4.3336224206596095A4.3336224206596095,4.3336224206596095 0 1,1 0,-4.3336224206596095A4.3336224206596095,4.3336224206596095 0 1,1 0,4.3336224206596095Z" style="fill: transparent; stroke: #98b892; stroke-width: 2;"></path><path transform="translate(29,25)" d="M0,4.3336224206596095A4.3336224206596095,4.3336224206596095 0 1,1 0,-4.3336224206596095A4.3336224206596095,4.3336224206596095 0 1,1 0,4.3336224206596095Z" style="fill: transparent; stroke: #98b892; stroke-width: 2;"></path><path transform="translate(171,43)" d="M0,4.3336224206596095A4.3336224206596095,4.3336224206596095 0 1,1 0,-4.3336224206596095A4.3336224206596095,4.3336224206596095 0 1,1 0,4.3336224206596095Z" style="fill: transparent; stroke: #98b892; stroke-width: 2;"></path><path transform="translate(172,33)" d="M0,4.370193722368317A4.370193722368317,4.370193722368317 0 1,1 0,-4.370193722368317A4.370193722368317,4.370193722368317 0 1,1 0,4.370193722368317Z" style="fill: transparent; stroke: #97b892; stroke-width: 2;"></path><path transform="translate(171,22)" d="M0,4.370193722368317A4.370193722368317,4.370193722368317 0 1,1 0,-4.370193722368317A4.370193722368317,4.370193722368317 0 1,1 0,4.370193722368317Z" style="fill: transparent; stroke: #97b892; stroke-width: 2;"></path><path transform="translate(170,16)" d="M0,4.370193722368317A4.370193722368317,4.370193722368317 0 1,1 0,-4.370193722368317A4.370193722368317,4.370193722368317 0 1,1 0,4.370193722368317Z" style="fill: transparent; stroke: #97b791; stroke-width: 2;"></path><path transform="translate(29,41)" d="M0,4.370193722368317A4.370193722368317,4.370193722368317 0 1,1 0,-4.370193722368317A4.370193722368317,4.370193722368317 0 1,1 0,4.370193722368317Z" style="fill: transparent; stroke: #97b791; stroke-width: 2;"></path><path transform="translate(29,27)" d="M0,4.406461512053774A4.406461512053774,4.406461512053774 0 1,1 0,-4.406461512053774A4.406461512053774,4.406461512053774 0 1,1 0,4.406461512053774Z" style="fill: transparent; stroke: #96b791; stroke-width: 2;"></path><path transform="translate(29,33)" d="M0,4.406461512053774A4.406461512053774,4.406461512053774 0 1,1 0,-4.406461512053774A4.406461512053774,4.406461512053774 0 1,1 0,4.406461512053774Z" style="fill: transparent; stroke: #96b791; stroke-width: 2;"></path><path transform="translate(29,26)" d="M0,4.442433223290478A4.442433223290478,4.442433223290478 0 1,1 0,-4.442433223290478A4.442433223290478,4.442433223290478 0 1,1 0,4.442433223290478Z" style="fill: transparent; stroke: #96b791; stroke-width: 2;"></path><path transform="translate(170,51)" d="M0,4.478115991081385A4.478115991081385,4.478115991081385 0 1,1 0,-4.478115991081385A4.478115991081385,4.478115991081385 0 1,1 0,4.478115991081385Z" style="fill: transparent; stroke: #95b790; stroke-width: 2;"></path><path transform="translate(29,32)" d="M0,4.51351666838205A4.51351666838205,4.51351666838205 0 1,1 0,-4.51351666838205A4.51351666838205,4.51351666838205 0 1,1 0,4.51351666838205Z" style="fill: transparent; stroke: #95b690; stroke-width: 2;"></path><path transform="translate(29,40)" d="M0,4.54864184146723A4.54864184146723,4.54864184146723 0 1,1 0,-4.54864184146723A4.54864184146723,4.54864184146723 0 1,1 0,4.54864184146723Z" style="fill: transparent; stroke: #95b690; stroke-width: 2;"></path><path transform="translate(29,33)" d="M0,4.583497844237541A4.583497844237541,4.583497844237541 0 1,1 0,-4.583497844237541A4.583497844237541,4.583497844237541 0 1,1 0,4.583497844237541Z" style="fill: transparent; stroke: #94b68f; stroke-width: 2;"></path><path transform="translate(29,36)" d="M0,4.61809077155419A4.61809077155419,4.61809077155419 0 1,1 0,-4.61809077155419A4.61809077155419,4.61809077155419 0 1,1 0,4.61809077155419Z" style="fill: transparent; stroke: #94b68f; stroke-width: 2;"></path><path transform="translate(29,24)" d="M0,4.652426491681278A4.652426491681278,4.652426491681278 0 1,1 0,-4.652426491681278A4.652426491681278,4.652426491681278 0 1,1 0,4.652426491681278Z" style="fill: transparent; stroke: #93b58f; stroke-width: 2;"></path><path transform="translate(170,19)" d="M0,4.686510657907603A4.686510657907603,4.686510657907603 0 1,1 0,-4.686510657907603A4.686510657907603,4.686510657907603 0 1,1 0,4.686510657907603Z" style="fill: transparent; stroke: #93b58f; stroke-width: 2;"></path><path transform="translate(172,31)" d="M0,4.686510657907603A4.686510657907603,4.686510657907603 0 1,1 0,-4.686510657907603A4.686510657907603,4.686510657907603 0 1,1 0,4.686510657907603Z" style="fill: transparent; stroke: #93b58f; stroke-width: 2;"></path><path transform="translate(171,20)" d="M0,4.720348719413148A4.720348719413148,4.720348719413148 0 1,1 0,-4.720348719413148A4.720348719413148,4.720348719413148 0 1,1 0,4.720348719413148Z" style="fill: transparent; stroke: #92b58e; stroke-width: 2;"></path><path transform="translate(29,47)" d="M0,4.753945931439391A4.753945931439391,4.753945931439391 0 1,1 0,-4.753945931439391A4.753945931439391,4.753945931439391 0 1,1 0,4.753945931439391Z" style="fill: transparent; stroke: #92b48e; stroke-width: 2;"></path><path transform="translate(29,32)" d="M0,4.820437914901168A4.820437914901168,4.820437914901168 0 1,1 0,-4.820437914901168A4.820437914901168,4.820437914901168 0 1,1 0,4.820437914901168Z" style="fill: transparent; stroke: #91b48d; stroke-width: 2;"></path><path transform="translate(170,54)" d="M0,4.853342309955121A4.853342309955121,4.853342309955121 0 1,1 0,-4.853342309955121A4.853342309955121,4.853342309955121 0 1,1 0,4.853342309955121Z" style="fill: transparent; stroke: #90b48d; stroke-width: 2;"></path><path transform="translate(29,42)" d="M0,4.918490759365935A4.918490759365935,4.918490759365935 0 1,1 0,-4.918490759365935A4.918490759365935,4.918490759365935 0 1,1 0,4.918490759365935Z" style="fill: transparent; stroke: #90b38c; stroke-width: 2;"></path><path transform="translate(171,36)" d="M0,4.982787485166879A4.982787485166879,4.982787485166879 0 1,1 0,-4.982787485166879A4.982787485166879,4.982787485166879 0 1,1 0,4.982787485166879Z" style="fill: transparent; stroke: #8fb38b; stroke-width: 2;"></path><path transform="translate(29,25)" d="M0,4.982787485166879A4.982787485166879,4.982787485166879 0 1,1 0,-4.982787485166879A4.982787485166879,4.982787485166879 0 1,1 0,4.982787485166879Z" style="fill: transparent; stroke: #8fb38b; stroke-width: 2;"></path><path transform="translate(29,33)" d="M0,4.982787485166879A4.982787485166879,4.982787485166879 0 1,1 0,-4.982787485166879A4.982787485166879,4.982787485166879 0 1,1 0,4.982787485166879Z" style="fill: transparent; stroke: #8eb28b; stroke-width: 2;"></path><path transform="translate(171,46)" d="M0,5.046265044040321A5.046265044040321,5.046265044040321 0 1,1 0,-5.046265044040321A5.046265044040321,5.046265044040321 0 1,1 0,5.046265044040321Z" style="fill: transparent; stroke: #8db28a; stroke-width: 2;"></path><path transform="translate(29,24)" d="M0,5.077706251929807A5.077706251929807,5.077706251929807 0 1,1 0,-5.077706251929807A5.077706251929807,5.077706251929807 0 1,1 0,5.077706251929807Z" style="fill: transparent; stroke: #8db18a; stroke-width: 2;"></path><path transform="translate(29,40)" d="M0,5.108953969950291A5.108953969950291,5.108953969950291 0 1,1 0,-5.108953969950291A5.108953969950291,5.108953969950291 0 1,1 0,5.108953969950291Z" style="fill: transparent; stroke: #8db18a; stroke-width: 2;"></path><path transform="translate(170,51)" d="M0,5.262410103554244A5.262410103554244,5.262410103554244 0 1,1 0,-5.262410103554244A5.262410103554244,5.262410103554244 0 1,1 0,5.262410103554244Z" style="fill: transparent; stroke: #8ab088; stroke-width: 2;"></path><path transform="translate(100,30)" d="M0,5.262410103554244A5.262410103554244,5.262410103554244 0 1,1 0,-5.262410103554244A5.262410103554244,5.262410103554244 0 1,1 0,5.262410103554244Z" style="fill: transparent; stroke: #8ab088; stroke-width: 2;"></path><path transform="translate(29,33)" d="M0,5.352372348458314A5.352372348458314,5.352372348458314 0 1,1 0,-5.352372348458314A5.352372348458314,5.352372348458314 0 1,1 0,5.352372348458314Z" style="fill: transparent; stroke: #89af87; stroke-width: 2;"></path><path transform="translate(29,41)" d="M0,5.352372348458314A5.352372348458314,5.352372348458314 0 1,1 0,-5.352372348458314A5.352372348458314,5.352372348458314 0 1,1 0,5.352372348458314Z" style="fill: transparent; stroke: #89af87; stroke-width: 2;"></path><path transform="translate(29,25)" d="M0,5.382025607773058A5.382025607773058,5.382025607773058 0 1,1 0,-5.382025607773058A5.382025607773058,5.382025607773058 0 1,1 0,5.382025607773058Z" style="fill: transparent; stroke: #88af87; stroke-width: 2;"></path><path transform="translate(97,24)" d="M0,5.440847306724618A5.440847306724618,5.440847306724618 0 1,1 0,-5.440847306724618A5.440847306724618,5.440847306724618 0 1,1 0,5.440847306724618Z" style="fill: transparent; stroke: #87ae86; stroke-width: 2;"></path><path transform="translate(29,20)" d="M0,5.781222885281108A5.781222885281108,5.781222885281108 0 1,1 0,-5.781222885281108A5.781222885281108,5.781222885281108 0 1,1 0,5.781222885281108Z" style="fill: transparent; stroke: #82ab82; stroke-width: 2;"></path><path transform="translate(29,25)" d="M0,5.808687281605183A5.808687281605183,5.808687281605183 0 1,1 0,-5.808687281605183A5.808687281605183,5.808687281605183 0 1,1 0,5.808687281605183Z" style="fill: transparent; stroke: #81ab82; stroke-width: 2;"></path><path transform="translate(171,21)" d="M0,5.836022431559495A5.836022431559495,5.836022431559495 0 1,1 0,-5.836022431559495A5.836022431559495,5.836022431559495 0 1,1 0,5.836022431559495Z" style="fill: transparent; stroke: #81aa81; stroke-width: 2;"></path><path transform="translate(29,27)" d="M0,5.890312181373172A5.890312181373172,5.890312181373172 0 1,1 0,-5.890312181373172A5.890312181373172,5.890312181373172 0 1,1 0,5.890312181373172Z" style="fill: transparent; stroke: #80aa81; stroke-width: 2;"></path><path transform="translate(172,38)" d="M0,6.076507779746499A6.076507779746499,6.076507779746499 0 1,1 0,-6.076507779746499A6.076507779746499,6.076507779746499 0 1,1 0,6.076507779746499Z" style="fill: transparent; stroke: #7da87e; stroke-width: 2;"></path><path transform="translate(172,29)" d="M0,6.128667601500942A6.128667601500942,6.128667601500942 0 1,1 0,-6.128667601500942A6.128667601500942,6.128667601500942 0 1,1 0,6.128667601500942Z" style="fill: transparent; stroke: #7ba77d; stroke-width: 2;"></path><path transform="translate(29,43)" d="M0,6.206085419025319A6.206085419025319,6.206085419025319 0 1,1 0,-6.206085419025319A6.206085419025319,6.206085419025319 0 1,1 0,6.206085419025319Z" style="fill: transparent; stroke: #7aa67d; stroke-width: 2;"></path><path transform="translate(170,53)" d="M0,6.282549314314218A6.282549314314218,6.282549314314218 0 1,1 0,-6.282549314314218A6.282549314314218,6.282549314314218 0 1,1 0,6.282549314314218Z" style="fill: transparent; stroke: #79a57c; stroke-width: 2;"></path><path transform="translate(172,31)" d="M0,6.282549314314218A6.282549314314218,6.282549314314218 0 1,1 0,-6.282549314314218A6.282549314314218,6.282549314314218 0 1,1 0,6.282549314314218Z" style="fill: transparent; stroke: #79a57c; stroke-width: 2;"></path><path transform="translate(29,26)" d="M0,6.3078313050504A6.3078313050504,6.3078313050504 0 1,1 0,-6.3078313050504A6.3078313050504,6.3078313050504 0 1,1 0,6.3078313050504Z" style="fill: transparent; stroke: #78a57b; stroke-width: 2;"></path><path transform="translate(29,44)" d="M0,6.333012368467128A6.333012368467128,6.333012368467128 0 1,1 0,-6.333012368467128A6.333012368467128,6.333012368467128 0 1,1 0,6.333012368467128Z" style="fill: transparent; stroke: #78a57b; stroke-width: 2;"></path><path transform="translate(171,23)" d="M0,6.432750982580687A6.432750982580687,6.432750982580687 0 1,1 0,-6.432750982580687A6.432750982580687,6.432750982580687 0 1,1 0,6.432750982580687Z" style="fill: transparent; stroke: #76a479; stroke-width: 2;"></path><path transform="translate(103,24)" d="M0,6.699380116989518A6.699380116989518,6.699380116989518 0 1,1 0,-6.699380116989518A6.699380116989518,6.699380116989518 0 1,1 0,6.699380116989518Z" style="fill: transparent; stroke: #71a176; stroke-width: 2;"></path><path transform="translate(29,47)" d="M0,6.723094811029982A6.723094811029982,6.723094811029982 0 1,1 0,-6.723094811029982A6.723094811029982,6.723094811029982 0 1,1 0,6.723094811029982Z" style="fill: transparent; stroke: #70a075; stroke-width: 2;"></path><path transform="translate(171,48)" d="M0,6.863662517577698A6.863662517577698,6.863662517577698 0 1,1 0,-6.863662517577698A6.863662517577698,6.863662517577698 0 1,1 0,6.863662517577698Z" style="fill: transparent; stroke: #6d9f73; stroke-width: 2;"></path><path transform="translate(103,190)" d="M0,6.886811529393324A6.886811529393324,6.886811529393324 0 1,1 0,-6.886811529393324A6.886811529393324,6.886811529393324 0 1,1 0,6.886811529393324Z" style="fill: transparent; stroke: #6d9e73; stroke-width: 2;"></path><path transform="translate(171,40)" d="M0,7.203090409536582A7.203090409536582,7.203090409536582 0 1,1 0,-7.203090409536582A7.203090409536582,7.203090409536582 0 1,1 0,7.203090409536582Z" style="fill: transparent; stroke: #669a6e; stroke-width: 2;"></path><path transform="translate(97,25)" d="M0,7.2909362219603215A7.2909362219603215,7.2909362219603215 0 1,1 0,-7.2909362219603215A7.2909362219603215,7.2909362219603215 0 1,1 0,7.2909362219603215Z" style="fill: transparent; stroke: #65996d; stroke-width: 2;"></path><path transform="translate(171,43)" d="M0,7.506054213402069A7.506054213402069,7.506054213402069 0 1,1 0,-7.506054213402069A7.506054213402069,7.506054213402069 0 1,1 0,7.506054213402069Z" style="fill: transparent; stroke: #609669; stroke-width: 2;"></path><path transform="translate(29,46)" d="M0,7.673807981960539A7.673807981960539,7.673807981960539 0 1,1 0,-7.673807981960539A7.673807981960539,7.673807981960539 0 1,1 0,7.673807981960539Z" style="fill: transparent; stroke: #5c9467; stroke-width: 2;"></path><path transform="translate(103,190)" d="M0,8.234075889688375A8.234075889688375,8.234075889688375 0 1,1 0,-8.234075889688375A8.234075889688375,8.234075889688375 0 1,1 0,8.234075889688375Z" style="fill: transparent; stroke: #4f8c5d; stroke-width: 2;"></path><path transform="translate(97,190)" d="M0,8.667244841319219A8.667244841319219,8.667244841319219 0 1,1 0,-8.667244841319219A8.667244841319219,8.667244841319219 0 1,1 0,8.667244841319219Z" style="fill: transparent; stroke: #448555; stroke-width: 2;"></path><path transform="translate(29,39)" d="M0,8.848967849484623A8.848967849484623,8.848967849484623 0 1,1 0,-8.848967849484623A8.848967849484623,8.848967849484623 0 1,1 0,8.848967849484623Z" style="fill: transparent; stroke: #3f8351; stroke-width: 2;"></path><path transform="translate(97,24)" d="M0,9.338999347593866A9.338999347593866,9.338999347593866 0 1,1 0,-9.338999347593866A9.338999347593866,9.338999347593866 0 1,1 0,9.338999347593866Z" style="fill: transparent; stroke: #327b48; stroke-width: 2;"></path><path transform="translate(98,24)" d="M0,10.71960208740737A10.71960208740737,10.71960208740737 0 1,1 0,-10.71960208740737A10.71960208740737,10.71960208740737 0 1,1 0,10.71960208740737Z" style="fill: transparent; stroke: #09622a; stroke-width: 2;"></path></g><g class="mark-group"><g transform="translate(220.5,0.5)"><rect class="background" width="108" height="51" style="pointer-events: none; fill: none;"></rect><g class="mark-text" style="pointer-events: none;"><text text-anchor="start" transform="translate(3,13)" style="font: bold 11px sans-serif; fill: #000; opacity: 1;">prob</text></g><g class="mark-rect" style="pointer-events: none;"><rect transform="translate(3,18)" width="100" height="16" style="fill: url(#gradient_2); stroke: #888; stroke-width: 1; opacity: 1;"></rect></g><g class="mark-text" style="pointer-events: none;"><text text-anchor="start" transform="translate(3,45)" style="font: 10px sans-serif; fill: #000; opacity: 1;">1.0e-4</text><text text-anchor="end" transform="translate(103,45)" style="font: 10px sans-serif; fill: #000; opacity: 1;">3.9e-2</text></g></g></g><g class="mark-group"><g transform="translate(220.5,53.5)"><rect class="background" width="60" height="75" style="pointer-events: none; fill: none;"></rect><g class="mark-text" style="pointer-events: none;"><text text-anchor="start" transform="translate(3,13)" style="font: bold 11px sans-serif; fill: #000; opacity: 1;">prob</text></g><g class="mark-symbol" style="pointer-events: none;"><path transform="translate(12.351646544245034,24)" d="M0,5.585191925620057A5.585191925620057,5.585191925620057 0 1,1 0,-5.585191925620057A5.585191925620057,5.585191925620057 0 1,1 0,5.585191925620057Z" style="fill: none; stroke: #4682b4; stroke-width: 2; opacity: 1;"></path><path transform="translate(12.351646544245034,41)" d="M0,7.756324418739616A7.756324418739616,7.756324418739616 0 1,1 0,-7.756324418739616A7.756324418739616,7.756324418739616 0 1,1 0,7.756324418739616Z" style="fill: none; stroke: #4682b4; stroke-width: 2; opacity: 1;"></path><path transform="translate(12.351646544245034,61)" d="M0,9.423823971471327A9.423823971471327,9.423823971471327 0 1,1 0,-9.423823971471327A9.423823971471327,9.423823971471327 0 1,1 0,9.423823971471327Z" style="fill: none; stroke: #4682b4; stroke-width: 2; opacity: 1;"></path></g><g class="mark-text" style="pointer-events: none;"><text text-anchor="start" transform="translate(25.703293088490067,27)" style="font: 10px sans-serif; fill: #000; opacity: 1;">1.0e-2</text><text text-anchor="start" transform="translate(25.703293088490067,44)" style="font: 10px sans-serif; fill: #000; opacity: 1;">2.0e-2</text><text text-anchor="start" transform="translate(25.703293088490067,64)" style="font: 10px sans-serif; fill: #000; opacity: 1;">3.0e-2</text></g></g></g></g></g></g></g></g></svg>