<svg class="marks" width="392" height="255" version="1.1" xmlns="http://www.w3.org/2000/svg" xmlns:xlink="http://www.w3.org/1999/xlink"><defs><linearGradient id="gradient_8" x1="0" x2="1" y1="0" y2="0"><stop offset="0" stop-color="#afc6a3"></stop><stop offset="1" stop-color="#09622a"></stop></linearGradient></defs><g transform="translate(58,12)"><g class="mark-group"><g transform="translate(0,0)"><rect class="background" width="1" height="1" style="fill: none;"></rect><g class="mark-group root"><g transform="translate(0,0)"><rect class="background" width="200" height="200" style="fill: none;"></rect><g class="mark-group"><g transform="translate(0,200)"><rect class="background" width="0" height="0" style="pointer-events: none; fill: none;"></rect><g class="mark-rule" style="pointer-events: none;"><line transform="translate(33.5,-200)" x2="0" y2="200" style="fill: none; stroke: #000; stroke-opacity: 0.15; opacity: 1;"></line><line transform="translate(75.5,-200)" x2="0" y2="200" style="fill: none; stroke: #000; stroke-opacity: 0.15; opacity: 1;"></line><line transform="translate(117.5,-200)" x2="0" y2="200" style="fill: none; stroke: #000; stroke-opacity: 0.15; opacity: 1;"></line><line transform="translate(158.5,-200)" x2="0" y2="200" style="fill: none; stroke: #000; stroke-opacity: 0.15; opacity: 1;"></line><line transform="translate(200.5,-200)" x2="0" y2="200" style="fill: none; stroke: #000; stroke-opacity: 0.15; opacity: 1;"></line></g><g class="mark-rule" style="pointer-events: none;"><line transform="translate(33.5,0)" x2="0" y2="6" style="fill: none; stroke: #000; stroke-width: 1; opacity: 1;"></line><line transform="translate(75.5,0)" x2="0" y2="6" style="fill: none; stroke: #000; stroke-width: 1; opacity: 1;"></line><line transform="translate(117.5,0)" x2="0" y2="6" style="fill: none; stroke: #000; stroke-width: 1; opacity: 1;"></line><line transform="translate(158.5,0)" x2="0" y2="6" style="fill: none; stroke: #000; stroke-width: 1; opacity: 1;"></line><line transform="translate(200.5,0)" x2="0" y2="6" style="fill: none; stroke: #000; stroke-width: 1; opacity: 1;"></line></g><g class="mark-rule" style="pointer-events: none;"></g><g class="mark-text"><text text-anchor="middle" transform="translate(33.5,19)" style="font: 11px sans-serif; fill: #000; opacity: 1;">-1</text><text text-anchor="middle" transform="translate(75.5,19)" style="font: 11px sans-serif; fill: #000; opacity: 1;">-0.5</text><text text-anchor="middle" transform="translate(117.5,19)" style="font: 11px sans-serif; fill: #000; opacity: 1;">0</text><text text-anchor="middle" transform="translate(158.5,19)" style="font: 11px sans-serif; fill: #000; opacity: 1;">0.5</text><text text-anchor="middle" transform="translate(200.5,19)" style="font: 11px sans-serif; fill: #000; opacity: 1;">1</text></g><g class="mark-path" style="pointer-events: none;"><path transform="translate(0.5,0.5)" d="M0,6V0H200V6" style="fill: none; stroke: #000; stroke-width: 1;"></path></g><g class="mark-text"><text text-anchor="middle" transform="translate(100,35)" style="font: bold 11px sans-serif; fill: #000;">x</text></g></g></g><g class="mark-group"><g transform="translate(0,0)"><rect class="background" width="0" height="0" style="pointer-events: none; fill: none;"></rect><g class="mark-rule" style="pointer-events: none;"><line transform="translate(0,200.5)" x2="200" y2="0" style="fill: none; stroke: #000; stroke-opacity: 0.15; opacity: 1;"></line><line transform="translate(0,185.5)" x2="200" y2="0" style="fill: none; stroke: #000; stroke-opacity: 0.15; opacity: 1;"></line><line transform="translate(0,169.5)" x2="200" y2="0" style="fill: none; stroke: #000; stroke-opacity: 0.15; opacity: 1;"></line><line transform="translate(0,154.5)" x2="200" y2="0" style="fill: none; stroke: #000; stroke-opacity: 0.15; opacity: 1;"></line><line transform="translate(0,138.5)" x2="200" y2="0" style="fill: none; stroke: #000; stroke-opacity: 0.15; opacity: 1;"></line><line transform="translate(0,123.5)" x2="200" y2="0" style="fill: none; stroke: #000; stroke-opacity: 0.15; opacity: 1;"></line><line transform="translate(0,108.5)" x2="200" y2="0" style="fill: none; stroke: #000; stroke-opacity: 0.15; opacity: 1;"></line><line transform="translate(0,92.5)" x2="200" y2="0" style="fill: none; stroke: #000; stroke-opacity: 0.15; opacity: 1;"></line><line transform="translate(0,77.5)" x2="200" y2="0" style="fill: none; stroke: #000; stroke-opacity: 0.15; opacity: 1;"></line><line transform="translate(0,62.5)" x2="200" y2="0" style="fill: none; stroke: #000; stroke-opacity: 0.15; opacity: 1;"></line><line transform="translate(0,46.5)" x2="200" y2="0" style="fill: none; stroke: #000; stroke-opacity: 0.15; opacity: 1;"></line><line transform="translate(0,31.5)" x2="200" y2="0" style="fill: none; stroke: #000; stroke-opacity: 0.15; opacity: 1;"></line><line transform="translate(0,15.5)" x2="200" y2="0" style="fill: none; stroke: #000; stroke-opacity: 0.15; opacity: 1;"></line><line transform="translate(0,0.5)" x2="200" y2="0" style="fill: none; stroke: #000; stroke-opacity: 0.15; opacity: 1;"></line></g><g class="mark-rule" style="pointer-events: none;"><line transform="translate(-6,200.5)" x2="6" y2="0" style="fill: none; stroke: #000; stroke-width: 1; opacity: 1;"></line><line transform="translate(-6,185.5)" x2="6" y2="0" style="fill: none; stroke: #000; stroke-width: 1; opacity: 1;"></line><line transform="translate(-6,169.5)" x2="6" y2="0" style="fill: none; stroke: #000; stroke-width: 1; opacity: 1;"></line><line transform="translate(-6,154.5)" x2="6" y2="0" style="fill: none; stroke: #000; stroke-width: 1; opacity: 1;"></line><line transform="translate(-6,138.5)" x2="6" y2="0" style="fill: none; stroke: #000; stroke-width: 1; opacity: 1;"></line><line transform="translate(-6,123.5)" x2="6" y2="0" style="fill: none; stroke: #000; stroke-width: 1; opacity: 1;"></line><line transform="translate(-6,108.5)" x2="6" y2="0" style="fill: none; stroke: #000; stroke-width: 1; opacity: 1;"></line><line transform="translate(-6,92.5)" x2="6" y2="0" style="fill: none; stroke: #000; stroke-width: 1; opacity: 1;"></line><line transform="translate(-6,77.5)" x2="6" y2="0" style="fill: none; stroke: #000; stroke-width: 1; opacity: 1;"></line><line transform="translate(-6,62.5)" x2="6" y2="0" style="fill: none; stroke: #000; stroke-width: 1; opacity: 1;"></line><line transform="translate(-6,46.5)" x2="6" y2="0" style="fill: none; stroke: #000; stroke-width: 1; opacity: 1;"></line><line transform="translate(-6,31.5)" x2="6" y2="0" style="fill: none; stroke: #000; stroke-width: 1; opacity: 1;"></line><line transform="translate(-6,15.5)" x2="6" y2="0" style="fill: none; stroke: #000; stroke-width: 1; opacity: 1;"></line><line transform="translate(-6,0.5)" x2="6" y2="0" style="fill: none; stroke: #000; stroke-width: 1; opacity: 1;"></line></g><g class="mark-rule" style="pointer-events: none;"></g><g class="mark-text"><text text-anchor="end" transform="translate(-9,203.5)" style="font: 11px sans-serif; fill: #000; opacity: 1;">-1.0</text><text text-anchor="end" transform="translate(-9,188.5)" style="font: 11px sans-serif; fill: #000; opacity: 1;">-0.80</text><text text-anchor="end" transform="translate(-9,172.5)" style="font: 11px sans-serif; fill: #000; opacity: 1;">-0.60</text><text text-anchor="end" transform="translate(-9,157.5)" style="font: 11px sans-serif; fill: #000; opacity: 1;">-0.40</text><text text-anchor="end" transform="translate(-9,141.5)" style="font: 11px sans-serif; fill: #000; opacity: 1;">-0.20</text><text text-anchor="end" transform="translate(-9,126.5)" style="font: 11px sans-serif; fill: #000; opacity: 1;">0.0</text><text text-anchor="end" transform="translate(-9,111.5)" style="font: 11px sans-serif; fill: #000; opacity: 1;">0.20</text><text text-anchor="end" transform="translate(-9,95.5)" style="font: 11px sans-serif; fill: #000; opacity: 1;">0.40</text><text text-anchor="end" transform="translate(-9,80.5)" style="font: 11px sans-serif; fill: #000; opacity: 1;">0.60</text><text text-anchor="end" transform="translate(-9,65.5)" style="font: 11px sans-serif; fill: #000; opacity: 1;">0.80</text><text text-anchor="end" transform="translate(-9,49.5)" style="font: 11px sans-serif; fill: #000; opacity: 1;">1.0</text><text text-anchor="end" transform="translate(-9,34.5)" style="font: 11px sans-serif; fill: #000; opacity: 1;">1.2</text><text text-anchor="end" transform="translate(-9,18.5)" style="font: 11px sans-serif; fill: #000; opacity: 1;">1.4</text><text text-anchor="end" transform="translate(-9,3.5)" style="font: 11px sans-serif; fill: #000; opacity: 1;">1.6</text></g><g class="mark-path" style="pointer-events: none;"><path transform="translate(0.5,0.5)" d="M-6,0H0V200H-6" style="fill: none; stroke: #000; stroke-width: 1;"></path></g><g class="mark-text"><text text-anchor="middle" transform="translate(-46,100) rotate(-90) translate(0,3)" style="font: bold 11px sans-serif; fill: #000;">y</text></g></g></g><g class="mark-symbol marks"><path transform="translate(118,41)" d="M0,1.692568750643269A1.692568750643269,1.692568750643269 0 1,1 0,-1.692568750643269A1.692568750643269,1.692568750643269 0 1,1 0,1.692568750643269Z" style="fill: transparent; stroke: #afc6a3; stroke-width: 2;"></path><path transform="translate(39,77)" d="M0,1.692568750643269A1.692568750643269,1.692568750643269 0 1,1 0,-1.692568750643269A1.692568750643269,1.692568750643269 0 1,1 0,1.692568750643269Z" style="fill: transparent; stroke: #afc6a3; stroke-width: 2;"></path><path transform="translate(142,15)" d="M0,1.8712051592547776A1.8712051592547776,1.8712051592547776 0 1,1 0,-1.8712051592547776A1.8712051592547776,1.8712051592547776 0 1,1 0,1.8712051592547776Z" style="fill: transparent; stroke: #aec6a2; stroke-width: 2;"></path><path transform="translate(142,15)" d="M0,2.111004122822376A2.111004122822376,2.111004122822376 0 1,1 0,-2.111004122822376A2.111004122822376,2.111004122822376 0 1,1 0,2.111004122822376Z" style="fill: transparent; stroke: #adc5a1; stroke-width: 2;"></path><path transform="translate(131,175)" d="M0,2.111004122822376A2.111004122822376,2.111004122822376 0 1,1 0,-2.111004122822376A2.111004122822376,2.111004122822376 0 1,1 0,2.111004122822376Z" style="fill: transparent; stroke: #adc5a1; stroke-width: 2;"></path><path transform="translate(152,149)" d="M0,2.326213245840639A2.326213245840639,2.326213245840639 0 1,1 0,-2.326213245840639A2.326213245840639,2.326213245840639 0 1,1 0,2.326213245840639Z" style="fill: transparent; stroke: #abc4a0; stroke-width: 2;"></path><path transform="translate(170,6)" d="M0,2.393653682408596A2.393653682408596,2.393653682408596 0 1,1 0,-2.393653682408596A2.393653682408596,2.393653682408596 0 1,1 0,2.393653682408596Z" style="fill: transparent; stroke: #abc3a0; stroke-width: 2;"></path><path transform="translate(198,32)" d="M0,2.5854414729132054A2.5854414729132054,2.5854414729132054 0 1,1 0,-2.5854414729132054A2.5854414729132054,2.5854414729132054 0 1,1 0,2.5854414729132054Z" style="fill: transparent; stroke: #a9c39f; stroke-width: 2;"></path><path transform="translate(168,127)" d="M0,2.5854414729132054A2.5854414729132054,2.5854414729132054 0 1,1 0,-2.5854414729132054A2.5854414729132054,2.5854414729132054 0 1,1 0,2.5854414729132054Z" style="fill: transparent; stroke: #a9c39f; stroke-width: 2;"></path><path transform="translate(189,92)" d="M0,2.7057581899030048A2.7057581899030048,2.7057581899030048 0 1,1 0,-2.7057581899030048A2.7057581899030048,2.7057581899030048 0 1,1 0,2.7057581899030048Z" style="fill: transparent; stroke: #a8c29e; stroke-width: 2;"></path><path transform="translate(120,191)" d="M0,2.8209479177387813A2.8209479177387813,2.8209479177387813 0 1,1 0,-2.8209479177387813A2.8209479177387813,2.8209479177387813 0 1,1 0,2.8209479177387813Z" style="fill: transparent; stroke: #a7c19d; stroke-width: 2;"></path><path transform="translate(139,17)" d="M0,2.9316150714175193A2.9316150714175193,2.9316150714175193 0 1,1 0,-2.9316150714175193A2.9316150714175193,2.9316150714175193 0 1,1 0,2.9316150714175193Z" style="fill: transparent; stroke: #a7c19d; stroke-width: 2;"></path><path transform="translate(192,83)" d="M0,2.9316150714175193A2.9316150714175193,2.9316150714175193 0 1,1 0,-2.9316150714175193A2.9316150714175193,2.9316150714175193 0 1,1 0,2.9316150714175193Z" style="fill: transparent; stroke: #a7c19d; stroke-width: 2;"></path><path transform="translate(199,58)" d="M0,2.9316150714175193A2.9316150714175193,2.9316150714175193 0 1,1 0,-2.9316150714175193A2.9316150714175193,2.9316150714175193 0 1,1 0,2.9316150714175193Z" style="fill: transparent; stroke: #a6c19d; stroke-width: 2;"></path><path transform="translate(80,9)" d="M0,2.985410660720923A2.985410660720923,2.985410660720923 0 1,1 0,-2.985410660720923A2.985410660720923,2.985410660720923 0 1,1 0,2.985410660720923Z" style="fill: transparent; stroke: #a6c19c; stroke-width: 2;"></path><path transform="translate(176,115)" d="M0,2.985410660720923A2.985410660720923,2.985410660720923 0 1,1 0,-2.985410660720923A2.985410660720923,2.985410660720923 0 1,1 0,2.985410660720923Z" style="fill: transparent; stroke: #a6c09c; stroke-width: 2;"></path><path transform="translate(199,34)" d="M0,3.0382538898732494A3.0382538898732494,3.0382538898732494 0 1,1 0,-3.0382538898732494A3.0382538898732494,3.0382538898732494 0 1,1 0,3.0382538898732494Z" style="fill: transparent; stroke: #a6c09c; stroke-width: 2;"></path><path transform="translate(54,9)" d="M0,3.0382538898732494A3.0382538898732494,3.0382538898732494 0 1,1 0,-3.0382538898732494A3.0382538898732494,3.0382538898732494 0 1,1 0,3.0382538898732494Z" style="fill: transparent; stroke: #a6c09c; stroke-width: 2;"></path><path transform="translate(195,76)" d="M0,3.0382538898732494A3.0382538898732494,3.0382538898732494 0 1,1 0,-3.0382538898732494A3.0382538898732494,3.0382538898732494 0 1,1 0,3.0382538898732494Z" style="fill: transparent; stroke: #a6c09c; stroke-width: 2;"></path><path transform="translate(52,10)" d="M0,3.0901936161855166A3.0901936161855166,3.0901936161855166 0 1,1 0,-3.0901936161855166A3.0901936161855166,3.0901936161855166 0 1,1 0,3.0901936161855166Z" style="fill: transparent; stroke: #a5c09c; stroke-width: 2;"></path><path transform="translate(93,164)" d="M0,3.141274657157109A3.141274657157109,3.141274657157109 0 1,1 0,-3.141274657157109A3.141274657157109,3.141274657157109 0 1,1 0,3.141274657157109Z" style="fill: transparent; stroke: #a4c09b; stroke-width: 2;"></path><path transform="translate(84,152)" d="M0,3.2410224072142872A3.2410224072142872,3.2410224072142872 0 1,1 0,-3.2410224072142872A3.2410224072142872,3.2410224072142872 0 1,1 0,3.2410224072142872Z" style="fill: transparent; stroke: #a4bf9b; stroke-width: 2;"></path><path transform="translate(34,46)" d="M0,3.523362819972964A3.523362819972964,3.523362819972964 0 1,1 0,-3.523362819972964A3.523362819972964,3.523362819972964 0 1,1 0,3.523362819972964Z" style="fill: transparent; stroke: #a1bd99; stroke-width: 2;"></path><path transform="translate(191,86)" d="M0,3.523362819972964A3.523362819972964,3.523362819972964 0 1,1 0,-3.523362819972964A3.523362819972964,3.523362819972964 0 1,1 0,3.523362819972964Z" style="fill: transparent; stroke: #a1bd99; stroke-width: 2;"></path><path transform="translate(168,128)" d="M0,3.5682482323055424A3.5682482323055424,3.5682482323055424 0 1,1 0,-3.5682482323055424A3.5682482323055424,3.5682482323055424 0 1,1 0,3.5682482323055424Z" style="fill: transparent; stroke: #a0bd98; stroke-width: 2;"></path><path transform="translate(134,171)" d="M0,3.656366395715726A3.656366395715726,3.656366395715726 0 1,1 0,-3.656366395715726A3.656366395715726,3.656366395715726 0 1,1 0,3.656366395715726Z" style="fill: transparent; stroke: #9fbd98; stroke-width: 2;"></path><path transform="translate(132,23)" d="M0,3.656366395715726A3.656366395715726,3.656366395715726 0 1,1 0,-3.656366395715726A3.656366395715726,3.656366395715726 0 1,1 0,3.656366395715726Z" style="fill: transparent; stroke: #9fbd98; stroke-width: 2;"></path><path transform="translate(48,12)" d="M0,3.7846987830302403A3.7846987830302403,3.7846987830302403 0 1,1 0,-3.7846987830302403A3.7846987830302403,3.7846987830302403 0 1,1 0,3.7846987830302403Z" style="fill: transparent; stroke: #9ebc97; stroke-width: 2;"></path><path transform="translate(107,29)" d="M0,3.7846987830302403A3.7846987830302403,3.7846987830302403 0 1,1 0,-3.7846987830302403A3.7846987830302403,3.7846987830302403 0 1,1 0,3.7846987830302403Z" style="fill: transparent; stroke: #9ebc97; stroke-width: 2;"></path><path transform="translate(34,54)" d="M0,3.7846987830302403A3.7846987830302403,3.7846987830302403 0 1,1 0,-3.7846987830302403A3.7846987830302403,3.7846987830302403 0 1,1 0,3.7846987830302403Z" style="fill: transparent; stroke: #9ebc97; stroke-width: 2;"></path><path transform="translate(118,196)" d="M0,3.9088200952233594A3.9088200952233594,3.9088200952233594 0 1,1 0,-3.9088200952233594A3.9088200952233594,3.9088200952233594 0 1,1 0,3.9088200952233594Z" style="fill: transparent; stroke: #9dbb96; stroke-width: 2;"></path><path transform="translate(34,42)" d="M0,3.989422804014327A3.989422804014327,3.989422804014327 0 1,1 0,-3.989422804014327A3.989422804014327,3.989422804014327 0 1,1 0,3.989422804014327Z" style="fill: transparent; stroke: #9cba95; stroke-width: 2;"></path><path transform="translate(85,12)" d="M0,4.259537945889915A4.259537945889915,4.259537945889915 0 1,1 0,-4.259537945889915A4.259537945889915,4.259537945889915 0 1,1 0,4.259537945889915Z" style="fill: transparent; stroke: #98b892; stroke-width: 2;"></path><path transform="translate(95,166)" d="M0,4.3336224206596095A4.3336224206596095,4.3336224206596095 0 1,1 0,-4.3336224206596095A4.3336224206596095,4.3336224206596095 0 1,1 0,4.3336224206596095Z" style="fill: transparent; stroke: #98b892; stroke-width: 2;"></path><path transform="translate(180,109)" d="M0,4.51351666838205A4.51351666838205,4.51351666838205 0 1,1 0,-4.51351666838205A4.51351666838205,4.51351666838205 0 1,1 0,4.51351666838205Z" style="fill: transparent; stroke: #95b690; stroke-width: 2;"></path><path transform="translate(175,7)" d="M0,4.61809077155419A4.61809077155419,4.61809077155419 0 1,1 0,-4.61809077155419A4.61809077155419,4.61809077155419 0 1,1 0,4.61809077155419Z" style="fill: transparent; stroke: #94b68f; stroke-width: 2;"></path><path transform="translate(164,7)" d="M0,4.820437914901168A4.820437914901168,4.820437914901168 0 1,1 0,-4.820437914901168A4.820437914901168,4.820437914901168 0 1,1 0,4.820437914901168Z" style="fill: transparent; stroke: #91b48d; stroke-width: 2;"></path><path transform="translate(196,73)" d="M0,4.853342309955121A4.853342309955121,4.853342309955121 0 1,1 0,-4.853342309955121A4.853342309955121,4.853342309955121 0 1,1 0,4.853342309955121Z" style="fill: transparent; stroke: #90b48d; stroke-width: 2;"></path><path transform="translate(34,37)" d="M0,4.886025119029199A4.886025119029199,4.886025119029199 0 1,1 0,-4.886025119029199A4.886025119029199,4.886025119029199 0 1,1 0,4.886025119029199Z" style="fill: transparent; stroke: #90b38c; stroke-width: 2;"></path><path transform="translate(142,161)" d="M0,4.918490759365935A4.918490759365935,4.918490759365935 0 1,1 0,-4.918490759365935A4.918490759365935,4.918490759365935 0 1,1 0,4.918490759365935Z" style="fill: transparent; stroke: #8fb38c; stroke-width: 2;"></path><path transform="translate(71,7)" d="M0,4.950743503369154A4.950743503369154,4.950743503369154 0 1,1 0,-4.950743503369154A4.950743503369154,4.950743503369154 0 1,1 0,4.950743503369154Z" style="fill: transparent; stroke: #8fb38c; stroke-width: 2;"></path><path transform="translate(89,159)" d="M0,5.077706251929807A5.077706251929807,5.077706251929807 0 1,1 0,-5.077706251929807A5.077706251929807,5.077706251929807 0 1,1 0,5.077706251929807Z" style="fill: transparent; stroke: #8db28a; stroke-width: 2;"></path><path transform="translate(129,26)" d="M0,5.077706251929807A5.077706251929807,5.077706251929807 0 1,1 0,-5.077706251929807A5.077706251929807,5.077706251929807 0 1,1 0,5.077706251929807Z" style="fill: transparent; stroke: #8db18a; stroke-width: 2;"></path><path transform="translate(53,109)" d="M0,5.201570947860099A5.201570947860099,5.201570947860099 0 1,1 0,-5.201570947860099A5.201570947860099,5.201570947860099 0 1,1 0,5.201570947860099Z" style="fill: transparent; stroke: #8bb089; stroke-width: 2;"></path><path transform="translate(138,18)" d="M0,5.322553886092406A5.322553886092406,5.322553886092406 0 1,1 0,-5.322553886092406A5.322553886092406,5.322553886092406 0 1,1 0,5.322553886092406Z" style="fill: transparent; stroke: #89af87; stroke-width: 2;"></path><path transform="translate(89,158)" d="M0,5.613615477764332A5.613615477764332,5.613615477764332 0 1,1 0,-5.613615477764332A5.613615477764332,5.613615477764332 0 1,1 0,5.613615477764332Z" style="fill: transparent; stroke: #85ac84; stroke-width: 2;"></path><path transform="translate(33,52)" d="M0,5.613615477764332A5.613615477764332,5.613615477764332 0 1,1 0,-5.613615477764332A5.613615477764332,5.613615477764332 0 1,1 0,5.613615477764332Z" style="fill: transparent; stroke: #85ac84; stroke-width: 2;"></path><path transform="translate(98,20)" d="M0,5.641895835477563A5.641895835477563,5.641895835477563 0 1,1 0,-5.641895835477563A5.641895835477563,5.641895835477563 0 1,1 0,5.641895835477563Z" style="fill: transparent; stroke: #84ac84; stroke-width: 2;"></path><path transform="translate(171,7)" d="M0,5.863230142835039A5.863230142835039,5.863230142835039 0 1,1 0,-5.863230142835039A5.863230142835039,5.863230142835039 0 1,1 0,5.863230142835039Z" style="fill: transparent; stroke: #81aa81; stroke-width: 2;"></path><path transform="translate(195,77)" d="M0,6.231677632421503A6.231677632421503,6.231677632421503 0 1,1 0,-6.231677632421503A6.231677632421503,6.231677632421503 0 1,1 0,6.231677632421503Z" style="fill: transparent; stroke: #7aa67c; stroke-width: 2;"></path><path transform="translate(58,117)" d="M0,6.432750982580687A6.432750982580687,6.432750982580687 0 1,1 0,-6.432750982580687A6.432750982580687,6.432750982580687 0 1,1 0,6.432750982580687Z" style="fill: transparent; stroke: #76a479; stroke-width: 2;"></path><path transform="translate(197,70)" d="M0,6.457444935117649A6.457444935117649,6.457444935117649 0 1,1 0,-6.457444935117649A6.457444935117649,6.457444935117649 0 1,1 0,6.457444935117649Z" style="fill: transparent; stroke: #76a379; stroke-width: 2;"></path><path transform="translate(103,177)" d="M0,6.840435166640879A6.840435166640879,6.840435166640879 0 1,1 0,-6.840435166640879A6.840435166640879,6.840435166640879 0 1,1 0,6.840435166640879Z" style="fill: transparent; stroke: #6e9f74; stroke-width: 2;"></path><path transform="translate(77,144)" d="M0,7.158763278359629A7.158763278359629,7.158763278359629 0 1,1 0,-7.158763278359629A7.158763278359629,7.158763278359629 0 1,1 0,7.158763278359629Z" style="fill: transparent; stroke: #679b6f; stroke-width: 2;"></path><path transform="translate(134,21)" d="M0,7.420755373261929A7.420755373261929,7.420755373261929 0 1,1 0,-7.420755373261929A7.420755373261929,7.420755373261929 0 1,1 0,7.420755373261929Z" style="fill: transparent; stroke: #62976b; stroke-width: 2;"></path><path transform="translate(194,22)" d="M0,8.902761462589227A8.902761462589227,8.902761462589227 0 1,1 0,-8.902761462589227A8.902761462589227,8.902761462589227 0 1,1 0,8.902761462589227Z" style="fill: transparent; stroke: #3e8251; stroke-width: 2;"></path><path transform="translate(187,97)" d="M0,10.71960208740737A10.71960208740737,10.71960208740737 0 1,1 0,-10.71960208740737A10.71960208740737,10.71960208740737 0 1,1 0,10.71960208740737Z" style="fill: transparent; stroke: #09622a; stroke-width: 2;"></path></g><g class="mark-group"><g transform="translate(220.5,0.5)"><rect class="background" width="108" height="51" style="pointer-events: none; fill: none;"></rect><g class="mark-text" style="pointer-events: none;"><text text-anchor="start" transform="translate(3,13)" style="font: bold 11px sans-serif; fill: #000; opacity: 1;">prob</text></g><g class="mark-rect" style="pointer-events: none;"><rect transform="translate(3,18)" width="100" height="16" style="fill: url(#gradient_8); stroke: #888; stroke-width: 1; opacity: 1;"></rect></g><g class="mark-text" style="pointer-events: none;"><text text-anchor="start" transform="translate(3,45)" style="font: 10px sans-serif; fill: #000; opacity: 1;">2.0e-4</text><text text-anchor="end" transform="translate(103,45)" style="font: 10px sans-serif; fill: #000; opacity: 1;">1.1e-1</text></g></g></g><g class="mark-group"><g transform="translate(220.5,53.5)"><rect class="background" width="61" height="114" style="pointer-events: none; fill: none;"></rect><g class="mark-text" style="pointer-events: none;"><text text-anchor="start" transform="translate(3,13)" style="font: bold 11px sans-serif; fill: #000; opacity: 1;">prob</text></g><g class="mark-symbol" style="pointer-events: none;"><path transform="translate(13.192388155425117,23)" d="M0,4.853342309955121A4.853342309955121,4.853342309955121 0 1,1 0,-4.853342309955121A4.853342309955121,4.853342309955121 0 1,1 0,4.853342309955121Z" style="fill: none; stroke: #4682b4; stroke-width: 2; opacity: 1;"></path><path transform="translate(13.192388155425117,39)" d="M0,6.6755811781245455A6.6755811781245455,6.6755811781245455 0 1,1 0,-6.6755811781245455A6.6755811781245455,6.6755811781245455 0 1,1 0,6.6755811781245455Z" style="fill: none; stroke: #4682b4; stroke-width: 2; opacity: 1;"></path><path transform="translate(13.192388155425117,57)" d="M0,8.097643889049511A8.097643889049511,8.097643889049511 0 1,1 0,-8.097643889049511A8.097643889049511,8.097643889049511 0 1,1 0,8.097643889049511Z" style="fill: none; stroke: #4682b4; stroke-width: 2; opacity: 1;"></path><path transform="translate(13.192388155425117,77)" d="M0,9.304852983362556A9.304852983362556,9.304852983362556 0 1,1 0,-9.304852983362556A9.304852983362556,9.304852983362556 0 1,1 0,9.304852983362556Z" style="fill: none; stroke: #4682b4; stroke-width: 2; opacity: 1;"></path><path transform="translate(13.192388155425117,99)" d="M0,10.37249929043725A10.37249929043725,10.37249929043725 0 1,1 0,-10.37249929043725A10.37249929043725,10.37249929043725 0 1,1 0,10.37249929043725Z" style="fill: none; stroke: #4682b4; stroke-width: 2; opacity: 1;"></path></g><g class="mark-text" style="pointer-events: none;"><text text-anchor="start" transform="translate(27.384776310850235,26)" style="font: 10px sans-serif; fill: #000; opacity: 1;">2.0e-2</text><text text-anchor="start" transform="translate(27.384776310850235,42)" style="font: 10px sans-serif; fill: #000; opacity: 1;">4.0e-2</text><text text-anchor="start" transform="translate(27.384776310850235,60)" style="font: 10px sans-serif; fill: #000; opacity: 1;">6.0e-2</text><text text-anchor="start" transform="translate(27.384776310850235,80)" style="font: 10px sans-serif; fill: #000; opacity: 1;">8.0e-2</text><text text-anchor="start" transform="translate(27.384776310850235,102)" style="font: 10px sans-serif; fill: #000; opacity: 1;">1.0e-1</text></g></g></g></g></g></g></g></g></svg>