<svg class="marks" width="392" height="255" version="1.1" xmlns="http://www.w3.org/2000/svg" xmlns:xlink="http://www.w3.org/1999/xlink"><defs><linearGradient id="gradient_12" x1="0" x2="1" y1="0" y2="0"><stop offset="0" stop-color="#afc6a3"></stop><stop offset="1" stop-color="#09622a"></stop></linearGradient></defs><g transform="translate(58,12)"><g class="mark-group"><g transform="translate(0,0)"><rect class="background" width="1" height="1" style="fill: none;"></rect><g class="mark-group root"><g transform="translate(0,0)"><rect class="background" width="200" height="200" style="fill: none;"></rect><g class="mark-group"><g transform="translate(0,200)"><rect class="background" width="0" height="0" style="pointer-events: none; fill: none;"></rect><g class="mark-rule" style="pointer-events: none;"><line transform="translate(29.5,-200)" x2="0" y2="200" style="fill: none; stroke: #000; stroke-opacity: 0.15; opacity: 1;"></line><line transform="translate(64.5,-200)" x2="0" y2="200" style="fill: none; stroke: #000; stroke-opacity: 0.15; opacity: 1;"></line><line transform="translate(100.5,-200)" x2="0" y2="200" style="fill: none; stroke: #000; stroke-opacity: 0.15; opacity: 1;"></line><line transform="translate(136.5,-200)" x2="0" y2="200" style="fill: none; stroke: #000; stroke-opacity: 0.15; opacity: 1;"></line><line transform="translate(171.5,-200)" x2="0" y2="200" style="fill: none; stroke: #000; stroke-opacity: 0.15; opacity: 1;"></line></g><g class="mark-rule" style="pointer-events: none;"><line transform="translate(29.5,0)" x2="0" y2="6" style="fill: none; stroke: #000; stroke-width: 1; opacity: 1;"></line><line transform="translate(64.5,0)" x2="0" y2="6" style="fill: none; stroke: #000; stroke-width: 1; opacity: 1;"></line><line transform="translate(100.5,0)" x2="0" y2="6" style="fill: none; stroke: #000; stroke-width: 1; opacity: 1;"></line><line transform="translate(136.5,0)" x2="0" y2="6" style="fill: none; stroke: #000; stroke-width: 1; opacity: 1;"></line><line transform="translate(171.5,0)" x2="0" y2="6" style="fill: none; stroke: #000; stroke-width: 1; opacity: 1;"></line></g><g class="mark-rule" style="pointer-events: none;"></g><g class="mark-text"><text text-anchor="middle" transform="translate(29.5,19)" style="font: 11px sans-serif; fill: #000; opacity: 1;">-1</text><text text-anchor="middle" transform="translate(64.5,19)" style="font: 11px sans-serif; fill: #000; opacity: 1;">-0.5</text><text text-anchor="middle" transform="translate(100.5,19)" style="font: 11px sans-serif; fill: #000; opacity: 1;">0</text><text text-anchor="middle" transform="translate(136.5,19)" style="font: 11px sans-serif; fill: #000; opacity: 1;">0.5</text><text text-anchor="middle" transform="translate(171.5,19)" style="font: 11px sans-serif; fill: #000; opacity: 1;">1</text></g><g class="mark-path" style="pointer-events: none;"><path transform="translate(0.5,0.5)" d="M0,6V0H200V6" style="fill: none; stroke: #000; stroke-width: 1;"></path></g><g class="mark-text"><text text-anchor="middle" transform="translate(100,35)" style="font: bold 11px sans-serif; fill: #000;">x</text></g></g></g><g class="mark-group"><g transform="translate(0,0)"><rect class="background" width="0" height="0" style="pointer-events: none; fill: none;"></rect><g class="mark-rule" style="pointer-events: none;"><line transform="translate(0,200.5)" x2="200" y2="0" style="fill: none; stroke: #000; stroke-opacity: 0.15; opacity: 1;"></line><line transform="translate(0,183.5)" x2="200" y2="0" style="fill: none; stroke: #000; stroke-opacity: 0.15; opacity: 1;"></line><line transform="translate(0,167.5)" x2="200" y2="0" style="fill: none; stroke: #000; stroke-opacity: 0.15; opacity: 1;"></line><line transform="translate(0,150.5)" x2="200" y2="0" style="fill: none; stroke: #000; stroke-opacity: 0.15; opacity: 1;"></line><line transform="translate(0,133.5)" x2="200" y2="0" style="fill: none; stroke: #000; stroke-opacity: 0.15; opacity: 1;"></line><line transform="translate(0,117.5)" x2="200" y2="0" style="fill: none; stroke: #000; stroke-opacity: 0.15; opacity: 1;"></line><line transform="translate(0,100.5)" x2="200" y2="0" style="fill: none; stroke: #000; stroke-opacity: 0.15; opacity: 1;"></line><line transform="translate(0,83.5)" x2="200" y2="0" style="fill: none; stroke: #000; stroke-opacity: 0.15; opacity: 1;"></line><line transform="translate(0,67.5)" x2="200" y2="0" style="fill: none; stroke: #000; stroke-opacity: 0.15; opacity: 1;"></line><line transform="translate(0,50.5)" x2="200" y2="0" style="fill: none; stroke: #000; stroke-opacity: 0.15; opacity: 1;"></line><line transform="translate(0,33.5)" x2="200" y2="0" style="fill: none; stroke: #000; stroke-opacity: 0.15; opacity: 1;"></line><line transform="translate(0,17.5)" x2="200" y2="0" style="fill: none; stroke: #000; stroke-opacity: 0.15; opacity: 1;"></line><line transform="translate(0,0.5)" x2="200" y2="0" style="fill: none; stroke: #000; stroke-opacity: 0.15; opacity: 1;"></line></g><g class="mark-rule" style="pointer-events: none;"><line transform="translate(-6,200.5)" x2="6" y2="0" style="fill: none; stroke: #000; stroke-width: 1; opacity: 1;"></line><line transform="translate(-6,183.5)" x2="6" y2="0" style="fill: none; stroke: #000; stroke-width: 1; opacity: 1;"></line><line transform="translate(-6,167.5)" x2="6" y2="0" style="fill: none; stroke: #000; stroke-width: 1; opacity: 1;"></line><line transform="translate(-6,150.5)" x2="6" y2="0" style="fill: none; stroke: #000; stroke-width: 1; opacity: 1;"></line><line transform="translate(-6,133.5)" x2="6" y2="0" style="fill: none; stroke: #000; stroke-width: 1; opacity: 1;"></line><line transform="translate(-6,117.5)" x2="6" y2="0" style="fill: none; stroke: #000; stroke-width: 1; opacity: 1;"></line><line transform="translate(-6,100.5)" x2="6" y2="0" style="fill: none; stroke: #000; stroke-width: 1; opacity: 1;"></line><line transform="translate(-6,83.5)" x2="6" y2="0" style="fill: none; stroke: #000; stroke-width: 1; opacity: 1;"></line><line transform="translate(-6,67.5)" x2="6" y2="0" style="fill: none; stroke: #000; stroke-width: 1; opacity: 1;"></line><line transform="translate(-6,50.5)" x2="6" y2="0" style="fill: none; stroke: #000; stroke-width: 1; opacity: 1;"></line><line transform="translate(-6,33.5)" x2="6" y2="0" style="fill: none; stroke: #000; stroke-width: 1; opacity: 1;"></line><line transform="translate(-6,17.5)" x2="6" y2="0" style="fill: none; stroke: #000; stroke-width: 1; opacity: 1;"></line><line transform="translate(-6,0.5)" x2="6" y2="0" style="fill: none; stroke: #000; stroke-width: 1; opacity: 1;"></line></g><g class="mark-rule" style="pointer-events: none;"></g><g class="mark-text"><text text-anchor="end" transform="translate(-9,203.5)" style="font: 11px sans-serif; fill: #000; opacity: 1;">-0.80</text><text text-anchor="end" transform="translate(-9,186.5)" style="font: 11px sans-serif; fill: #000; opacity: 1;">-0.60</text><text text-anchor="end" transform="translate(-9,170.5)" style="font: 11px sans-serif; fill: #000; opacity: 1;">-0.40</text><text text-anchor="end" transform="translate(-9,153.5)" style="font: 11px sans-serif; fill: #000; opacity: 1;">-0.20</text><text text-anchor="end" transform="translate(-9,136.5)" style="font: 11px sans-serif; fill: #000; opacity: 1;">0.0</text><text text-anchor="end" transform="translate(-9,120.5)" style="font: 11px sans-serif; fill: #000; opacity: 1;">0.20</text><text text-anchor="end" transform="translate(-9,103.5)" style="font: 11px sans-serif; fill: #000; opacity: 1;">0.40</text><text text-anchor="end" transform="translate(-9,86.5)" style="font: 11px sans-serif; fill: #000; opacity: 1;">0.60</text><text text-anchor="end" transform="translate(-9,70.5)" style="font: 11px sans-serif; fill: #000; opacity: 1;">0.80</text><text text-anchor="end" transform="translate(-9,53.5)" style="font: 11px sans-serif; fill: #000; opacity: 1;">1.0</text><text text-anchor="end" transform="translate(-9,36.5)" style="font: 11px sans-serif; fill: #000; opacity: 1;">1.2</text><text text-anchor="end" transform="translate(-9,20.5)" style="font: 11px sans-serif; fill: #000; opacity: 1;">1.4</text><text text-anchor="end" transform="translate(-9,3.5)" style="font: 11px sans-serif; fill: #000; opacity: 1;">1.6</text></g><g class="mark-path" style="pointer-events: none;"><path transform="translate(0.5,0.5)" d="M-6,0H0V200H-6" style="fill: none; stroke: #000; stroke-width: 1;"></path></g><g class="mark-text"><text text-anchor="middle" transform="translate(-46,100) rotate(-90) translate(0,3)" style="font: bold 11px sans-serif; fill: #000;">y</text></g></g></g><g class="mark-symbol marks"><path transform="translate(159,13)" d="M0,1.692568750643269A1.692568750643269,1.692568750643269 0 1,1 0,-1.692568750643269A1.692568750643269,1.692568750643269 0 1,1 0,1.692568750643269Z" style="fill: transparent; stroke: #afc6a3; stroke-width: 2;"></path><path transform="translate(93,32)" d="M0,1.7841241161527712A1.7841241161527712,1.7841241161527712 0 1,1 0,-1.7841241161527712A1.7841241161527712,1.7841241161527712 0 1,1 0,1.7841241161527712Z" style="fill: transparent; stroke: #afc6a3; stroke-width: 2;"></path><path transform="translate(87,25)" d="M0,1.8712051592547776A1.8712051592547776,1.8712051592547776 0 1,1 0,-1.8712051592547776A1.8712051592547776,1.8712051592547776 0 1,1 0,1.8712051592547776Z" style="fill: transparent; stroke: #aec5a2; stroke-width: 2;"></path><path transform="translate(52,132)" d="M0,1.8712051592547776A1.8712051592547776,1.8712051592547776 0 1,1 0,-1.8712051592547776A1.8712051592547776,1.8712051592547776 0 1,1 0,1.8712051592547776Z" style="fill: transparent; stroke: #aec5a2; stroke-width: 2;"></path><path transform="translate(74,14)" d="M0,2.0342144725641096A2.0342144725641096,2.0342144725641096 0 1,1 0,-2.0342144725641096A2.0342144725641096,2.0342144725641096 0 1,1 0,2.0342144725641096Z" style="fill: transparent; stroke: #adc5a2; stroke-width: 2;"></path><path transform="translate(86,187)" d="M0,2.326213245840639A2.326213245840639,2.326213245840639 0 1,1 0,-2.326213245840639A2.326213245840639,2.326213245840639 0 1,1 0,2.326213245840639Z" style="fill: transparent; stroke: #abc4a0; stroke-width: 2;"></path><path transform="translate(33,24)" d="M0,2.5231325220201604A2.5231325220201604,2.5231325220201604 0 1,1 0,-2.5231325220201604A2.5231325220201604,2.5231325220201604 0 1,1 0,2.5231325220201604Z" style="fill: transparent; stroke: #aac39f; stroke-width: 2;"></path><path transform="translate(121,177)" d="M0,2.876813695875796A2.876813695875796,2.876813695875796 0 1,1 0,-2.876813695875796A2.876813695875796,2.876813695875796 0 1,1 0,2.876813695875796Z" style="fill: transparent; stroke: #a7c19d; stroke-width: 2;"></path><path transform="translate(156,114)" d="M0,2.985410660720923A2.985410660720923,2.985410660720923 0 1,1 0,-2.985410660720923A2.985410660720923,2.985410660720923 0 1,1 0,2.985410660720923Z" style="fill: transparent; stroke: #a6c19d; stroke-width: 2;"></path><path transform="translate(160,14)" d="M0,3.0382538898732494A3.0382538898732494,3.0382538898732494 0 1,1 0,-3.0382538898732494A3.0382538898732494,3.0382538898732494 0 1,1 0,3.0382538898732494Z" style="fill: transparent; stroke: #a6c09c; stroke-width: 2;"></path><path transform="translate(50,127)" d="M0,3.0382538898732494A3.0382538898732494,3.0382538898732494 0 1,1 0,-3.0382538898732494A3.0382538898732494,3.0382538898732494 0 1,1 0,3.0382538898732494Z" style="fill: transparent; stroke: #a5c09c; stroke-width: 2;"></path><path transform="translate(44,114)" d="M0,3.141274657157109A3.141274657157109,3.141274657157109 0 1,1 0,-3.141274657157109A3.141274657157109,3.141274657157109 0 1,1 0,3.141274657157109Z" style="fill: transparent; stroke: #a5c09b; stroke-width: 2;"></path><path transform="translate(109,195)" d="M0,3.1915382432114616A3.1915382432114616,3.1915382432114616 0 1,1 0,-3.1915382432114616A3.1915382432114616,3.1915382432114616 0 1,1 0,3.1915382432114616Z" style="fill: transparent; stroke: #a4bf9b; stroke-width: 2;"></path><path transform="translate(60,147)" d="M0,3.2410224072142872A3.2410224072142872,3.2410224072142872 0 1,1 0,-3.2410224072142872A3.2410224072142872,3.2410224072142872 0 1,1 0,3.2410224072142872Z" style="fill: transparent; stroke: #a4bf9b; stroke-width: 2;"></path><path transform="translate(170,67)" d="M0,3.2897623212397704A3.2897623212397704,3.2897623212397704 0 1,1 0,-3.2897623212397704A3.2897623212397704,3.2897623212397704 0 1,1 0,3.2897623212397704Z" style="fill: transparent; stroke: #a3bf9b; stroke-width: 2;"></path><path transform="translate(171,51)" d="M0,3.431831258788849A3.431831258788849,3.431831258788849 0 1,1 0,-3.431831258788849A3.431831258788849,3.431831258788849 0 1,1 0,3.431831258788849Z" style="fill: transparent; stroke: #a2be99; stroke-width: 2;"></path><path transform="translate(129,12)" d="M0,3.431831258788849A3.431831258788849,3.431831258788849 0 1,1 0,-3.431831258788849A3.431831258788849,3.431831258788849 0 1,1 0,3.431831258788849Z" style="fill: transparent; stroke: #a2be99; stroke-width: 2;"></path><path transform="translate(172,44)" d="M0,3.431831258788849A3.431831258788849,3.431831258788849 0 1,1 0,-3.431831258788849A3.431831258788849,3.431831258788849 0 1,1 0,3.431831258788849Z" style="fill: transparent; stroke: #a2be99; stroke-width: 2;"></path><path transform="translate(41,108)" d="M0,3.477898169151024A3.477898169151024,3.477898169151024 0 1,1 0,-3.477898169151024A3.477898169151024,3.477898169151024 0 1,1 0,3.477898169151024Z" style="fill: transparent; stroke: #a1be99; stroke-width: 2;"></path><path transform="translate(72,12)" d="M0,3.5682482323055424A3.5682482323055424,3.5682482323055424 0 1,1 0,-3.5682482323055424A3.5682482323055424,3.5682482323055424 0 1,1 0,3.5682482323055424Z" style="fill: transparent; stroke: #a1bd98; stroke-width: 2;"></path><path transform="translate(141,7)" d="M0,3.5682482323055424A3.5682482323055424,3.5682482323055424 0 1,1 0,-3.5682482323055424A3.5682482323055424,3.5682482323055424 0 1,1 0,3.5682482323055424Z" style="fill: transparent; stroke: #a1bd98; stroke-width: 2;"></path><path transform="translate(110,29)" d="M0,3.5682482323055424A3.5682482323055424,3.5682482323055424 0 1,1 0,-3.5682482323055424A3.5682482323055424,3.5682482323055424 0 1,1 0,3.5682482323055424Z" style="fill: transparent; stroke: #a0bd98; stroke-width: 2;"></path><path transform="translate(29,46)" d="M0,3.5682482323055424A3.5682482323055424,3.5682482323055424 0 1,1 0,-3.5682482323055424A3.5682482323055424,3.5682482323055424 0 1,1 0,3.5682482323055424Z" style="fill: transparent; stroke: #a0bd98; stroke-width: 2;"></path><path transform="translate(119,179)" d="M0,3.6125759969217834A3.6125759969217834,3.6125759969217834 0 1,1 0,-3.6125759969217834A3.6125759969217834,3.6125759969217834 0 1,1 0,3.6125759969217834Z" style="fill: transparent; stroke: #a0bd98; stroke-width: 2;"></path><path transform="translate(131,162)" d="M0,3.6125759969217834A3.6125759969217834,3.6125759969217834 0 1,1 0,-3.6125759969217834A3.6125759969217834,3.6125759969217834 0 1,1 0,3.6125759969217834Z" style="fill: transparent; stroke: #a0bd98; stroke-width: 2;"></path><path transform="translate(167,25)" d="M0,3.6125759969217834A3.6125759969217834,3.6125759969217834 0 1,1 0,-3.6125759969217834A3.6125759969217834,3.6125759969217834 0 1,1 0,3.6125759969217834Z" style="fill: transparent; stroke: #a0bd98; stroke-width: 2;"></path><path transform="translate(113,188)" d="M0,3.6125759969217834A3.6125759969217834,3.6125759969217834 0 1,1 0,-3.6125759969217834A3.6125759969217834,3.6125759969217834 0 1,1 0,3.6125759969217834Z" style="fill: transparent; stroke: #a0bd98; stroke-width: 2;"></path><path transform="translate(65,9)" d="M0,3.6996385101659595A3.6996385101659595,3.6996385101659595 0 1,1 0,-3.6996385101659595A3.6996385101659595,3.6996385101659595 0 1,1 0,3.6996385101659595Z" style="fill: transparent; stroke: #9fbc97; stroke-width: 2;"></path><path transform="translate(171,60)" d="M0,3.742410318509555A3.742410318509555,3.742410318509555 0 1,1 0,-3.742410318509555A3.742410318509555,3.742410318509555 0 1,1 0,3.742410318509555Z" style="fill: transparent; stroke: #9fbc97; stroke-width: 2;"></path><path transform="translate(69,11)" d="M0,3.8678889139475245A3.8678889139475245,3.8678889139475245 0 1,1 0,-3.8678889139475245A3.8678889139475245,3.8678889139475245 0 1,1 0,3.8678889139475245Z" style="fill: transparent; stroke: #9dbb96; stroke-width: 2;"></path><path transform="translate(118,20)" d="M0,3.949327084834294A3.949327084834294,3.949327084834294 0 1,1 0,-3.949327084834294A3.949327084834294,3.949327084834294 0 1,1 0,3.949327084834294Z" style="fill: transparent; stroke: #9cbb95; stroke-width: 2;"></path><path transform="translate(146,8)" d="M0,4.1841419359420025A4.1841419359420025,4.1841419359420025 0 1,1 0,-4.1841419359420025A4.1841419359420025,4.1841419359420025 0 1,1 0,4.1841419359420025Z" style="fill: transparent; stroke: #99b993; stroke-width: 2;"></path><path transform="translate(34,85)" d="M0,4.259537945889915A4.259537945889915,4.259537945889915 0 1,1 0,-4.259537945889915A4.259537945889915,4.259537945889915 0 1,1 0,4.259537945889915Z" style="fill: transparent; stroke: #99b893; stroke-width: 2;"></path><path transform="translate(121,17)" d="M0,4.296739856991561A4.296739856991561,4.296739856991561 0 1,1 0,-4.296739856991561A4.296739856991561,4.296739856991561 0 1,1 0,4.296739856991561Z" style="fill: transparent; stroke: #98b892; stroke-width: 2;"></path><path transform="translate(171,42)" d="M0,4.370193722368317A4.370193722368317,4.370193722368317 0 1,1 0,-4.370193722368317A4.370193722368317,4.370193722368317 0 1,1 0,4.370193722368317Z" style="fill: transparent; stroke: #97b791; stroke-width: 2;"></path><path transform="translate(71,164)" d="M0,4.370193722368317A4.370193722368317,4.370193722368317 0 1,1 0,-4.370193722368317A4.370193722368317,4.370193722368317 0 1,1 0,4.370193722368317Z" style="fill: transparent; stroke: #97b791; stroke-width: 2;"></path><path transform="translate(57,142)" d="M0,4.442433223290478A4.442433223290478,4.442433223290478 0 1,1 0,-4.442433223290478A4.442433223290478,4.442433223290478 0 1,1 0,4.442433223290478Z" style="fill: transparent; stroke: #96b791; stroke-width: 2;"></path><path transform="translate(152,122)" d="M0,4.982787485166879A4.982787485166879,4.982787485166879 0 1,1 0,-4.982787485166879A4.982787485166879,4.982787485166879 0 1,1 0,4.982787485166879Z" style="fill: transparent; stroke: #8fb38b; stroke-width: 2;"></path><path transform="translate(146,135)" d="M0,4.982787485166879A4.982787485166879,4.982787485166879 0 1,1 0,-4.982787485166879A4.982787485166879,4.982787485166879 0 1,1 0,4.982787485166879Z" style="fill: transparent; stroke: #8eb28b; stroke-width: 2;"></path><path transform="translate(29,57)" d="M0,5.046265044040321A5.046265044040321,5.046265044040321 0 1,1 0,-5.046265044040321A5.046265044040321,5.046265044040321 0 1,1 0,5.046265044040321Z" style="fill: transparent; stroke: #8eb28b; stroke-width: 2;"></path><path transform="translate(29,45)" d="M0,5.108953969950291A5.108953969950291,5.108953969950291 0 1,1 0,-5.108953969950291A5.108953969950291,5.108953969950291 0 1,1 0,5.108953969950291Z" style="fill: transparent; stroke: #8cb18a; stroke-width: 2;"></path><path transform="translate(48,123)" d="M0,5.170882945826411A5.170882945826411,5.170882945826411 0 1,1 0,-5.170882945826411A5.170882945826411,5.170882945826411 0 1,1 0,5.170882945826411Z" style="fill: transparent; stroke: #8cb189; stroke-width: 2;"></path><path transform="translate(135,8)" d="M0,5.262410103554244A5.262410103554244,5.262410103554244 0 1,1 0,-5.262410103554244A5.262410103554244,5.262410103554244 0 1,1 0,5.262410103554244Z" style="fill: transparent; stroke: #8ab088; stroke-width: 2;"></path><path transform="translate(41,107)" d="M0,5.440847306724618A5.440847306724618,5.440847306724618 0 1,1 0,-5.440847306724618A5.440847306724618,5.440847306724618 0 1,1 0,5.440847306724618Z" style="fill: transparent; stroke: #87ae86; stroke-width: 2;"></path><path transform="translate(45,117)" d="M0,5.499039842323396A5.499039842323396,5.499039842323396 0 1,1 0,-5.499039842323396A5.499039842323396,5.499039842323396 0 1,1 0,5.499039842323396Z" style="fill: transparent; stroke: #86ae85; stroke-width: 2;"></path><path transform="translate(103,41)" d="M0,5.556622981616415A5.556622981616415,5.556622981616415 0 1,1 0,-5.556622981616415A5.556622981616415,5.556622981616415 0 1,1 0,5.556622981616415Z" style="fill: transparent; stroke: #86ad85; stroke-width: 2;"></path><path transform="translate(60,8)" d="M0,5.613615477764332A5.613615477764332,5.613615477764332 0 1,1 0,-5.613615477764332A5.613615477764332,5.613615477764332 0 1,1 0,5.613615477764332Z" style="fill: transparent; stroke: #84ac84; stroke-width: 2;"></path><path transform="translate(30,67)" d="M0,5.725898905580716A5.725898905580716,5.725898905580716 0 1,1 0,-5.725898905580716A5.725898905580716,5.725898905580716 0 1,1 0,5.725898905580716Z" style="fill: transparent; stroke: #83ab83; stroke-width: 2;"></path><path transform="translate(32,77)" d="M0,5.725898905580716A5.725898905580716,5.725898905580716 0 1,1 0,-5.725898905580716A5.725898905580716,5.725898905580716 0 1,1 0,5.725898905580716Z" style="fill: transparent; stroke: #82ab83; stroke-width: 2;"></path><path transform="translate(29,48)" d="M0,5.890312181373172A5.890312181373172,5.890312181373172 0 1,1 0,-5.890312181373172A5.890312181373172,5.890312181373172 0 1,1 0,5.890312181373172Z" style="fill: transparent; stroke: #80aa81; stroke-width: 2;"></path><path transform="translate(160,15)" d="M0,5.890312181373172A5.890312181373172,5.890312181373172 0 1,1 0,-5.890312181373172A5.890312181373172,5.890312181373172 0 1,1 0,5.890312181373172Z" style="fill: transparent; stroke: #80aa81; stroke-width: 2;"></path><path transform="translate(167,25)" d="M0,5.917270272703197A5.917270272703197,5.917270272703197 0 1,1 0,-5.917270272703197A5.917270272703197,5.917270272703197 0 1,1 0,5.917270272703197Z" style="fill: transparent; stroke: #7fa980; stroke-width: 2;"></path><path transform="translate(103,40)" d="M0,6.076507779746499A6.076507779746499,6.076507779746499 0 1,1 0,-6.076507779746499A6.076507779746499,6.076507779746499 0 1,1 0,6.076507779746499Z" style="fill: transparent; stroke: #7ca87e; stroke-width: 2;"></path><path transform="translate(129,11)" d="M0,6.257165172872317A6.257165172872317,6.257165172872317 0 1,1 0,-6.257165172872317A6.257165172872317,6.257165172872317 0 1,1 0,6.257165172872317Z" style="fill: transparent; stroke: #79a67c; stroke-width: 2;"></path><path transform="translate(30,67)" d="M0,6.506551687525748A6.506551687525748,6.506551687525748 0 1,1 0,-6.506551687525748A6.506551687525748,6.506551687525748 0 1,1 0,6.506551687525748Z" style="fill: transparent; stroke: #75a378; stroke-width: 2;"></path><path transform="translate(84,184)" d="M0,6.579524642479541A6.579524642479541,6.579524642479541 0 1,1 0,-6.579524642479541A6.579524642479541,6.579524642479541 0 1,1 0,6.579524642479541Z" style="fill: transparent; stroke: #73a277; stroke-width: 2;"></path><path transform="translate(78,175)" d="M0,6.6755811781245455A6.6755811781245455,6.6755811781245455 0 1,1 0,-6.6755811781245455A6.6755811781245455,6.6755811781245455 0 1,1 0,6.6755811781245455Z" style="fill: transparent; stroke: #71a176; stroke-width: 2;"></path><path transform="translate(169,34)" d="M0,6.699380116989518A6.699380116989518,6.699380116989518 0 1,1 0,-6.699380116989518A6.699380116989518,6.699380116989518 0 1,1 0,6.699380116989518Z" style="fill: transparent; stroke: #71a075; stroke-width: 2;"></path><path transform="translate(28,47)" d="M0,7.420755373261929A7.420755373261929,7.420755373261929 0 1,1 0,-7.420755373261929A7.420755373261929,7.420755373261929 0 1,1 0,7.420755373261929Z" style="fill: transparent; stroke: #62986b; stroke-width: 2;"></path><path transform="translate(169,71)" d="M0,7.938851142601841A7.938851142601841,7.938851142601841 0 1,1 0,-7.938851142601841A7.938851142601841,7.938851142601841 0 1,1 0,7.938851142601841Z" style="fill: transparent; stroke: #569062; stroke-width: 2;"></path><path transform="translate(162,97)" d="M0,7.958873497585845A7.958873497585845,7.958873497585845 0 1,1 0,-7.958873497585845A7.958873497585845,7.958873497585845 0 1,1 0,7.958873497585845Z" style="fill: transparent; stroke: #569062; stroke-width: 2;"></path><path transform="translate(101,43)" d="M0,8.253382073025046A8.253382073025046,8.253382073025046 0 1,1 0,-8.253382073025046A8.253382073025046,8.253382073025046 0 1,1 0,8.253382073025046Z" style="fill: transparent; stroke: #4e8c5c; stroke-width: 2;"></path><path transform="translate(154,119)" d="M0,8.51907589177983A8.51907589177983,8.51907589177983 0 1,1 0,-8.51907589177983A8.51907589177983,8.51907589177983 0 1,1 0,8.51907589177983Z" style="fill: transparent; stroke: #488858; stroke-width: 2;"></path><path transform="translate(159,13)" d="M0,8.83096382707056A8.83096382707056,8.83096382707056 0 1,1 0,-8.83096382707056A8.83096382707056,8.83096382707056 0 1,1 0,8.83096382707056Z" style="fill: transparent; stroke: #408352; stroke-width: 2;"></path><path transform="translate(167,81)" d="M0,9.321941800299703A9.321941800299703,9.321941800299703 0 1,1 0,-9.321941800299703A9.321941800299703,9.321941800299703 0 1,1 0,9.321941800299703Z" style="fill: transparent; stroke: #327b48; stroke-width: 2;"></path><path transform="translate(155,10)" d="M0,9.491137855389772A9.491137855389772,9.491137855389772 0 1,1 0,-9.491137855389772A9.491137855389772,9.491137855389772 0 1,1 0,9.491137855389772Z" style="fill: transparent; stroke: #2e7845; stroke-width: 2;"></path><path transform="translate(52,8)" d="M0,9.574614729634384A9.574614729634384,9.574614729634384 0 1,1 0,-9.574614729634384A9.574614729634384,9.574614729634384 0 1,1 0,9.574614729634384Z" style="fill: transparent; stroke: #2b7743; stroke-width: 2;"></path><path transform="translate(138,8)" d="M0,9.788323438736636A9.788323438736636,9.788323438736636 0 1,1 0,-9.788323438736636A9.788323438736636,9.788323438736636 0 1,1 0,9.788323438736636Z" style="fill: transparent; stroke: #25733e; stroke-width: 2;"></path><path transform="translate(75,14)" d="M0,9.82078894558317A9.82078894558317,9.82078894558317 0 1,1 0,-9.82078894558317A9.82078894558317,9.82078894558317 0 1,1 0,9.82078894558317Z" style="fill: transparent; stroke: #24723e; stroke-width: 2;"></path><path transform="translate(50,127)" d="M0,10.71960208740737A10.71960208740737,10.71960208740737 0 1,1 0,-10.71960208740737A10.71960208740737,10.71960208740737 0 1,1 0,10.71960208740737Z" style="fill: transparent; stroke: #09622a; stroke-width: 2;"></path></g><g class="mark-group"><g transform="translate(220.5,0.5)"><rect class="background" width="108" height="51" style="pointer-events: none; fill: none;"></rect><g class="mark-text" style="pointer-events: none;"><text text-anchor="start" transform="translate(3,13)" style="font: bold 11px sans-serif; fill: #000; opacity: 1;">prob</text></g><g class="mark-rect" style="pointer-events: none;"><rect transform="translate(3,18)" width="100" height="16" style="fill: url(#gradient_12); stroke: #888; stroke-width: 1; opacity: 1;"></rect></g><g class="mark-text" style="pointer-events: none;"><text text-anchor="start" transform="translate(3,45)" style="font: 10px sans-serif; fill: #000; opacity: 1;">1.0e-4</text><text text-anchor="end" transform="translate(103,45)" style="font: 10px sans-serif; fill: #000; opacity: 1;">5.9e-2</text></g></g></g><g class="mark-group"><g transform="translate(220.5,53.5)"><rect class="background" width="61" height="111" style="pointer-events: none; fill: none;"></rect><g class="mark-text" style="pointer-events: none;"><text text-anchor="start" transform="translate(3,13)" style="font: bold 11px sans-serif; fill: #000; opacity: 1;">prob</text></g><g class="mark-symbol" style="pointer-events: none;"><path transform="translate(12.789197915623474,23)" d="M0,4.686510657907603A4.686510657907603,4.686510657907603 0 1,1 0,-4.686510657907603A4.686510657907603,4.686510657907603 0 1,1 0,4.686510657907603Z" style="fill: none; stroke: #4682b4; stroke-width: 2; opacity: 1;"></path><path transform="translate(12.789197915623474,38)" d="M0,6.407961869245868A6.407961869245868,6.407961869245868 0 1,1 0,-6.407961869245868A6.407961869245868,6.407961869245868 0 1,1 0,6.407961869245868Z" style="fill: none; stroke: #4682b4; stroke-width: 2; opacity: 1;"></path><path transform="translate(12.789197915623474,56)" d="M0,7.756324418739616A7.756324418739616,7.756324418739616 0 1,1 0,-7.756324418739616A7.756324418739616,7.756324418739616 0 1,1 0,7.756324418739616Z" style="fill: none; stroke: #4682b4; stroke-width: 2; opacity: 1;"></path><path transform="translate(12.789197915623474,75)" d="M0,8.902761462589227A8.902761462589227,8.902761462589227 0 1,1 0,-8.902761462589227A8.902761462589227,8.902761462589227 0 1,1 0,8.902761462589227Z" style="fill: none; stroke: #4682b4; stroke-width: 2; opacity: 1;"></path><path transform="translate(12.789197915623474,97)" d="M0,9.91754782346883A9.91754782346883,9.91754782346883 0 1,1 0,-9.91754782346883A9.91754782346883,9.91754782346883 0 1,1 0,9.91754782346883Z" style="fill: none; stroke: #4682b4; stroke-width: 2; opacity: 1;"></path></g><g class="mark-text" style="pointer-events: none;"><text text-anchor="start" transform="translate(26.578395831246947,26)" style="font: 10px sans-serif; fill: #000; opacity: 1;">1.0e-2</text><text text-anchor="start" transform="translate(26.578395831246947,41)" style="font: 10px sans-serif; fill: #000; opacity: 1;">2.0e-2</text><text text-anchor="start" transform="translate(26.578395831246947,59)" style="font: 10px sans-serif; fill: #000; opacity: 1;">3.0e-2</text><text text-anchor="start" transform="translate(26.578395831246947,78)" style="font: 10px sans-serif; fill: #000; opacity: 1;">4.0e-2</text><text text-anchor="start" transform="translate(26.578395831246947,100)" style="font: 10px sans-serif; fill: #000; opacity: 1;">5.0e-2</text></g></g></g></g></g></g></g></g></svg>