<svg class="marks" width="260" height="256" version="1.1" xmlns="http://www.w3.org/2000/svg" xmlns:xlink="http://www.w3.org/1999/xlink"><g transform="translate(60,0)"><g class="mark-group"><g transform="translate(0,0)"><rect class="background" width="1" height="1" style="fill: none;"></rect><g class="mark-group root"><g transform="translate(0,0)"><rect class="background" width="44" height="216" style="fill: none;"></rect><g class="mark-group"><g transform="translate(0,208)"><rect class="background" width="0" height="0" style="pointer-events: none; fill: none;"></rect><g class="mark-rule" style="pointer-events: none;"></g><g class="mark-rule" style="pointer-events: none;"><line transform="translate(11.5,0)" x2="0" y2="0" style="fill: none; stroke: #000; stroke-width: 1; opacity: 1;"></line><line transform="translate(33.5,0)" x2="0" y2="0" style="fill: none; stroke: #000; stroke-width: 1; opacity: 1;"></line></g><g class="mark-rule" style="pointer-events: none;"></g><g class="mark-text"><text text-anchor="end" transform="translate(11.5,3) rotate(270) translate(0,3)" style="font: 11px sans-serif; fill: #000; opacity: 1;">false</text><text text-anchor="end" transform="translate(33.5,3) rotate(270) translate(0,3)" style="font: 11px sans-serif; fill: #000; opacity: 1;">true</text></g><g class="mark-path" style="pointer-events: none;"><path transform="translate(0.5,0.5)" d="M0,0V0H44V0" style="fill: none; stroke: #000; stroke-width: 1;"></path></g><g class="mark-text"><text text-anchor="middle" transform="translate(22,40)" style="font: bold 11px sans-serif; fill: #000;">crater_group_green</text></g></g></g><g class="mark-group y-axes"><g transform="translate(0,8)"><rect class="background" width="44" height="200" style="fill: none;"></rect><g class="mark-group"><g transform="translate(0,0)"><rect class="background" width="0" height="0" style="pointer-events: none; fill: none;"></rect><g class="mark-rule" style="pointer-events: none;"></g><g class="mark-rule" style="pointer-events: none;"><line transform="translate(-6,200.5)" x2="6" y2="0" style="fill: none; stroke: #000; stroke-width: 1; opacity: 1;"></line><line transform="translate(-6,182.5)" x2="6" y2="0" style="fill: none; stroke: #000; stroke-width: 1; opacity: 1;"></line><line transform="translate(-6,164.5)" x2="6" y2="0" style="fill: none; stroke: #000; stroke-width: 1; opacity: 1;"></line><line transform="translate(-6,145.5)" x2="6" y2="0" style="fill: none; stroke: #000; stroke-width: 1; opacity: 1;"></line><line transform="translate(-6,127.5)" x2="6" y2="0" style="fill: none; stroke: #000; stroke-width: 1; opacity: 1;"></line><line transform="translate(-6,109.5)" x2="6" y2="0" style="fill: none; stroke: #000; stroke-width: 1; opacity: 1;"></line><line transform="translate(-6,91.5)" x2="6" y2="0" style="fill: none; stroke: #000; stroke-width: 1; opacity: 1;"></line><line transform="translate(-6,73.5)" x2="6" y2="0" style="fill: none; stroke: #000; stroke-width: 1; opacity: 1;"></line><line transform="translate(-6,55.5)" x2="6" y2="0" style="fill: none; stroke: #000; stroke-width: 1; opacity: 1;"></line><line transform="translate(-6,36.5)" x2="6" y2="0" style="fill: none; stroke: #000; stroke-width: 1; opacity: 1;"></line><line transform="translate(-6,18.5)" x2="6" y2="0" style="fill: none; stroke: #000; stroke-width: 1; opacity: 1;"></line><line transform="translate(-6,0.5)" x2="6" y2="0" style="fill: none; stroke: #000; stroke-width: 1; opacity: 1;"></line></g><g class="mark-rule" style="pointer-events: none;"></g><g class="mark-text"><text text-anchor="end" transform="translate(-9,203.5)" style="font: 11px sans-serif; fill: #000; opacity: 1;">0.0</text><text text-anchor="end" transform="translate(-9,185.5)" style="font: 11px sans-serif; fill: #000; opacity: 1;">0.050</text><text text-anchor="end" transform="translate(-9,167.5)" style="font: 11px sans-serif; fill: #000; opacity: 1;">0.10</text><text text-anchor="end" transform="translate(-9,148.5)" style="font: 11px sans-serif; fill: #000; opacity: 1;">0.15</text><text text-anchor="end" transform="translate(-9,130.5)" style="font: 11px sans-serif; fill: #000; opacity: 1;">0.20</text><text text-anchor="end" transform="translate(-9,112.5)" style="font: 11px sans-serif; fill: #000; opacity: 1;">0.25</text><text text-anchor="end" transform="translate(-9,94.5)" style="font: 11px sans-serif; fill: #000; opacity: 1;">0.30</text><text text-anchor="end" transform="translate(-9,76.5)" style="font: 11px sans-serif; fill: #000; opacity: 1;">0.35</text><text text-anchor="end" transform="translate(-9,58.5)" style="font: 11px sans-serif; fill: #000; opacity: 1;">0.40</text><text text-anchor="end" transform="translate(-9,39.5)" style="font: 11px sans-serif; fill: #000; opacity: 1;">0.45</text><text text-anchor="end" transform="translate(-9,21.5)" style="font: 11px sans-serif; fill: #000; opacity: 1;">0.50</text><text text-anchor="end" transform="translate(-9,3.5)" style="font: 11px sans-serif; fill: #000; opacity: 1;">0.55</text></g><g class="mark-path" style="pointer-events: none;"><path transform="translate(0.5,0.5)" d="M-6,0H0V200H-6" style="fill: none; stroke: #000; stroke-width: 1;"></path></g><g class="mark-text"><text text-anchor="middle" transform="translate(-48,100) rotate(-90) translate(0,3)" style="font: bold 11px sans-serif; fill: #000;">Probability</text></g></g></g></g></g><g class="mark-group cell"><g transform="translate(24,8)"><rect class="background" width="18" height="200" style="fill: none; stroke: #ccc; stroke-width: 0;"></rect><g class="mark-group"><g transform="translate(0,0)"><rect class="background" width="0" height="0" style="pointer-events: none; fill: none;"></rect><g class="mark-rule" style="pointer-events: none;"><line transform="translate(0,200.5)" x2="18" y2="0" style="fill: none; stroke: #000; stroke-opacity: 0.15; opacity: 1;"></line><line transform="translate(0,182.5)" x2="18" y2="0" style="fill: none; stroke: #000; stroke-opacity: 0.15; opacity: 1;"></line><line transform="translate(0,164.5)" x2="18" y2="0" style="fill: none; stroke: #000; stroke-opacity: 0.15; opacity: 1;"></line><line transform="translate(0,145.5)" x2="18" y2="0" style="fill: none; stroke: #000; stroke-opacity: 0.15; opacity: 1;"></line><line transform="translate(0,127.5)" x2="18" y2="0" style="fill: none; stroke: #000; stroke-opacity: 0.15; opacity: 1;"></line><line transform="translate(0,109.5)" x2="18" y2="0" style="fill: none; stroke: #000; stroke-opacity: 0.15; opacity: 1;"></line><line transform="translate(0,91.5)" x2="18" y2="0" style="fill: none; stroke: #000; stroke-opacity: 0.15; opacity: 1;"></line><line transform="translate(0,73.5)" x2="18" y2="0" style="fill: none; stroke: #000; stroke-opacity: 0.15; opacity: 1;"></line><line transform="translate(0,55.5)" x2="18" y2="0" style="fill: none; stroke: #000; stroke-opacity: 0.15; opacity: 1;"></line><line transform="translate(0,36.5)" x2="18" y2="0" style="fill: none; stroke: #000; stroke-opacity: 0.15; opacity: 1;"></line><line transform="translate(0,18.5)" x2="18" y2="0" style="fill: none; stroke: #000; stroke-opacity: 0.15; opacity: 1;"></line><line transform="translate(0,0.5)" x2="18" y2="0" style="fill: none; stroke: #000; stroke-opacity: 0.15; opacity: 1;"></line></g><g class="mark-rule" style="pointer-events: none;"><line transform="translate(0,200.5)" x2="0" y2="0" style="fill: none; stroke: #000; stroke-width: 1; opacity: 1;"></line><line transform="translate(0,182.5)" x2="0" y2="0" style="fill: none; stroke: #000; stroke-width: 1; opacity: 1;"></line><line transform="translate(0,164.5)" x2="0" y2="0" style="fill: none; stroke: #000; stroke-width: 1; opacity: 1;"></line><line transform="translate(0,145.5)" x2="0" y2="0" style="fill: none; stroke: #000; stroke-width: 1; opacity: 1;"></line><line transform="translate(0,127.5)" x2="0" y2="0" style="fill: none; stroke: #000; stroke-width: 1; opacity: 1;"></line><line transform="translate(0,109.5)" x2="0" y2="0" style="fill: none; stroke: #000; stroke-width: 1; opacity: 1;"></line><line transform="translate(0,91.5)" x2="0" y2="0" style="fill: none; stroke: #000; stroke-width: 1; opacity: 1;"></line><line transform="translate(0,73.5)" x2="0" y2="0" style="fill: none; stroke: #000; stroke-width: 1; opacity: 1;"></line><line transform="translate(0,55.5)" x2="0" y2="0" style="fill: none; stroke: #000; stroke-width: 1; opacity: 1;"></line><line transform="translate(0,36.5)" x2="0" y2="0" style="fill: none; stroke: #000; stroke-width: 1; opacity: 1;"></line><line transform="translate(0,18.5)" x2="0" y2="0" style="fill: none; stroke: #000; stroke-width: 1; opacity: 1;"></line><line transform="translate(0,0.5)" x2="0" y2="0" style="fill: none; stroke: #000; stroke-width: 1; opacity: 1;"></line></g><g class="mark-rule" style="pointer-events: none;"></g><g class="mark-text"><text text-anchor="end" transform="translate(-3,203.5)" style="font: 11px sans-serif; fill: #000; opacity: 1;"></text><text text-anchor="end" transform="translate(-3,185.5)" style="font: 11px sans-serif; fill: #000; opacity: 1;"></text><text text-anchor="end" transform="translate(-3,167.5)" style="font: 11px sans-serif; fill: #000; opacity: 1;"></text><text text-anchor="end" transform="translate(-3,148.5)" style="font: 11px sans-serif; fill: #000; opacity: 1;"></text><text text-anchor="end" transform="translate(-3,130.5)" style="font: 11px sans-serif; fill: #000; opacity: 1;"></text><text text-anchor="end" transform="translate(-3,112.5)" style="font: 11px sans-serif; fill: #000; opacity: 1;"></text><text text-anchor="end" transform="translate(-3,94.5)" style="font: 11px sans-serif; fill: #000; opacity: 1;"></text><text text-anchor="end" transform="translate(-3,76.5)" style="font: 11px sans-serif; fill: #000; opacity: 1;"></text><text text-anchor="end" transform="translate(-3,58.5)" style="font: 11px sans-serif; fill: #000; opacity: 1;"></text><text text-anchor="end" transform="translate(-3,39.5)" style="font: 11px sans-serif; fill: #000; opacity: 1;"></text><text text-anchor="end" transform="translate(-3,21.5)" style="font: 11px sans-serif; fill: #000; opacity: 1;"></text><text text-anchor="end" transform="translate(-3,3.5)" style="font: 11px sans-serif; fill: #000; opacity: 1;"></text></g><g class="mark-path" style="pointer-events: none;"><path transform="translate(0.5,0.5)" d="M0,0H0V200H0" style="fill: none; stroke: transparent; stroke-width: 1;"></path></g><g class="mark-text"></g></g></g><g class="mark-rect child_marks"><rect transform="translate(11.5,8)" width="5" height="192" style="fill: #ff7f0e; opacity: 0.7;"></rect><rect transform="translate(2.5,165)" width="5" height="35" style="fill: #1f77b4; opacity: 0.7;"></rect></g></g><g transform="translate(2,8)"><rect class="background" width="18" height="200" style="fill: none; stroke: #ccc; stroke-width: 0;"></rect><g class="mark-group"><g transform="translate(0,0)"><rect class="background" width="0" height="0" style="pointer-events: none; fill: none;"></rect><g class="mark-rule" style="pointer-events: none;"><line transform="translate(0,200.5)" x2="18" y2="0" style="fill: none; stroke: #000; stroke-opacity: 0.15; opacity: 1;"></line><line transform="translate(0,182.5)" x2="18" y2="0" style="fill: none; stroke: #000; stroke-opacity: 0.15; opacity: 1;"></line><line transform="translate(0,164.5)" x2="18" y2="0" style="fill: none; stroke: #000; stroke-opacity: 0.15; opacity: 1;"></line><line transform="translate(0,145.5)" x2="18" y2="0" style="fill: none; stroke: #000; stroke-opacity: 0.15; opacity: 1;"></line><line transform="translate(0,127.5)" x2="18" y2="0" style="fill: none; stroke: #000; stroke-opacity: 0.15; opacity: 1;"></line><line transform="translate(0,109.5)" x2="18" y2="0" style="fill: none; stroke: #000; stroke-opacity: 0.15; opacity: 1;"></line><line transform="translate(0,91.5)" x2="18" y2="0" style="fill: none; stroke: #000; stroke-opacity: 0.15; opacity: 1;"></line><line transform="translate(0,73.5)" x2="18" y2="0" style="fill: none; stroke: #000; stroke-opacity: 0.15; opacity: 1;"></line><line transform="translate(0,55.5)" x2="18" y2="0" style="fill: none; stroke: #000; stroke-opacity: 0.15; opacity: 1;"></line><line transform="translate(0,36.5)" x2="18" y2="0" style="fill: none; stroke: #000; stroke-opacity: 0.15; opacity: 1;"></line><line transform="translate(0,18.5)" x2="18" y2="0" style="fill: none; stroke: #000; stroke-opacity: 0.15; opacity: 1;"></line><line transform="translate(0,0.5)" x2="18" y2="0" style="fill: none; stroke: #000; stroke-opacity: 0.15; opacity: 1;"></line></g><g class="mark-rule" style="pointer-events: none;"><line transform="translate(0,200.5)" x2="0" y2="0" style="fill: none; stroke: #000; stroke-width: 1; opacity: 1;"></line><line transform="translate(0,182.5)" x2="0" y2="0" style="fill: none; stroke: #000; stroke-width: 1; opacity: 1;"></line><line transform="translate(0,164.5)" x2="0" y2="0" style="fill: none; stroke: #000; stroke-width: 1; opacity: 1;"></line><line transform="translate(0,145.5)" x2="0" y2="0" style="fill: none; stroke: #000; stroke-width: 1; opacity: 1;"></line><line transform="translate(0,127.5)" x2="0" y2="0" style="fill: none; stroke: #000; stroke-width: 1; opacity: 1;"></line><line transform="translate(0,109.5)" x2="0" y2="0" style="fill: none; stroke: #000; stroke-width: 1; opacity: 1;"></line><line transform="translate(0,91.5)" x2="0" y2="0" style="fill: none; stroke: #000; stroke-width: 1; opacity: 1;"></line><line transform="translate(0,73.5)" x2="0" y2="0" style="fill: none; stroke: #000; stroke-width: 1; opacity: 1;"></line><line transform="translate(0,55.5)" x2="0" y2="0" style="fill: none; stroke: #000; stroke-width: 1; opacity: 1;"></line><line transform="translate(0,36.5)" x2="0" y2="0" style="fill: none; stroke: #000; stroke-width: 1; opacity: 1;"></line><line transform="translate(0,18.5)" x2="0" y2="0" style="fill: none; stroke: #000; stroke-width: 1; opacity: 1;"></line><line transform="translate(0,0.5)" x2="0" y2="0" style="fill: none; stroke: #000; stroke-width: 1; opacity: 1;"></line></g><g class="mark-rule" style="pointer-events: none;"></g><g class="mark-text"><text text-anchor="end" transform="translate(-3,203.5)" style="font: 11px sans-serif; fill: #000; opacity: 1;"></text><text text-anchor="end" transform="translate(-3,185.5)" style="font: 11px sans-serif; fill: #000; opacity: 1;"></text><text text-anchor="end" transform="translate(-3,167.5)" style="font: 11px sans-serif; fill: #000; opacity: 1;"></text><text text-anchor="end" transform="translate(-3,148.5)" style="font: 11px sans-serif; fill: #000; opacity: 1;"></text><text text-anchor="end" transform="translate(-3,130.5)" style="font: 11px sans-serif; fill: #000; opacity: 1;"></text><text text-anchor="end" transform="translate(-3,112.5)" style="font: 11px sans-serif; fill: #000; opacity: 1;"></text><text text-anchor="end" transform="translate(-3,94.5)" style="font: 11px sans-serif; fill: #000; opacity: 1;"></text><text text-anchor="end" transform="translate(-3,76.5)" style="font: 11px sans-serif; fill: #000; opacity: 1;"></text><text text-anchor="end" transform="translate(-3,58.5)" style="font: 11px sans-serif; fill: #000; opacity: 1;"></text><text text-anchor="end" transform="translate(-3,39.5)" style="font: 11px sans-serif; fill: #000; opacity: 1;"></text><text text-anchor="end" transform="translate(-3,21.5)" style="font: 11px sans-serif; fill: #000; opacity: 1;"></text><text text-anchor="end" transform="translate(-3,3.5)" style="font: 11px sans-serif; fill: #000; opacity: 1;"></text></g><g class="mark-path" style="pointer-events: none;"><path transform="translate(0.5,0.5)" d="M0,0H0V200H0" style="fill: none; stroke: transparent; stroke-width: 1;"></path></g><g class="mark-text"></g></g></g><g class="mark-rect child_marks"><rect transform="translate(11.5,148)" width="5" height="52" style="fill: #ff7f0e; opacity: 0.7;"></rect><rect transform="translate(2.5,115)" width="5" height="85" style="fill: #1f77b4; opacity: 0.7;"></rect></g></g></g><g class="mark-group"><g transform="translate(64.5,0.5)"><rect class="background" width="130" height="47" style="pointer-events: none; fill: none;"></rect><g class="mark-text" style="pointer-events: none;"><text text-anchor="start" transform="translate(3,13)" style="font: bold 11px sans-serif; fill: #000; opacity: 1;">crater_group_antannae</text></g><g class="mark-symbol" style="pointer-events: none;"><path transform="translate(7.5,23)" d="M0,3.989422804014327A3.989422804014327,3.989422804014327 0 1,1 0,-3.989422804014327A3.989422804014327,3.989422804014327 0 1,1 0,3.989422804014327Z" style="fill: #1f77b4; stroke: #888; stroke-width: 0; opacity: 0.7;"></path><path transform="translate(7.5,38)" d="M0,3.989422804014327A3.989422804014327,3.989422804014327 0 1,1 0,-3.989422804014327A3.989422804014327,3.989422804014327 0 1,1 0,3.989422804014327Z" style="fill: #ff7f0e; stroke: #888; stroke-width: 0; opacity: 0.7;"></path></g><g class="mark-text" style="pointer-events: none;"><text text-anchor="start" transform="translate(16,26)" style="font: 10px sans-serif; fill: #000; opacity: 1;">false</text><text text-anchor="start" transform="translate(16,41)" style="font: 10px sans-serif; fill: #000; opacity: 1;">true</text></g></g></g></g></g></g></g></g></svg>