<svg class="marks" width="151" height="301" version="1.1" xmlns="http://www.w3.org/2000/svg" xmlns:xlink="http://www.w3.org/1999/xlink"><g transform="translate(60,12)"><g class="mark-group"><g transform="translate(0,0)"><rect class="background" width="1" height="1" style="fill: none;"></rect><g class="mark-group root"><g transform="translate(0,0)"><rect class="background" width="84" height="200" style="fill: none;"></rect><g class="mark-group"><g transform="translate(0,200)"><rect class="background" width="0" height="0" style="pointer-events: none; fill: none;"></rect><g class="mark-rule" style="pointer-events: none;"></g><g class="mark-rule" style="pointer-events: none;"><line transform="translate(14.5,0)" x2="0" y2="6" style="fill: none; stroke: #000; stroke-width: 1; opacity: 1;"></line><line transform="translate(42.5,0)" x2="0" y2="6" style="fill: none; stroke: #000; stroke-width: 1; opacity: 1;"></line><line transform="translate(70.5,0)" x2="0" y2="6" style="fill: none; stroke: #000; stroke-width: 1; opacity: 1;"></line></g><g class="mark-rule" style="pointer-events: none;"></g><g class="mark-text"><text text-anchor="end" transform="translate(14.5,9) rotate(270) translate(0,3)" style="font: 11px sans-serif; fill: #000; opacity: 1;">antennae</text><text text-anchor="end" transform="translate(42.5,9) rotate(270) translate(0,3)" style="font: 11px sans-serif; fill: #000; opacity: 1;">blarghNoise</text><text text-anchor="end" transform="translate(70.5,9) rotate(270) translate(0,3)" style="font: 11px sans-serif; fill: #000; opacity: 1;">green</text></g><g class="mark-path" style="pointer-events: none;"><path transform="translate(0.5,0.5)" d="M0,6V0H84V6" style="fill: none; stroke: #000; stroke-width: 1;"></path></g><g class="mark-text"><text text-anchor="middle" transform="translate(42,81)" style="font: bold 11px sans-serif; fill: #000;">x</text></g></g></g><g class="mark-group"><g transform="translate(0,0)"><rect class="background" width="0" height="0" style="pointer-events: none; fill: none;"></rect><g class="mark-rule" style="pointer-events: none;"><line transform="translate(0,200.5)" x2="84" y2="0" style="fill: none; stroke: #000; stroke-opacity: 0.15; opacity: 1;"></line><line transform="translate(0,175.5)" x2="84" y2="0" style="fill: none; stroke: #000; stroke-opacity: 0.15; opacity: 1;"></line><line transform="translate(0,150.5)" x2="84" y2="0" style="fill: none; stroke: #000; stroke-opacity: 0.15; opacity: 1;"></line><line transform="translate(0,125.5)" x2="84" y2="0" style="fill: none; stroke: #000; stroke-opacity: 0.15; opacity: 1;"></line><line transform="translate(0,100.5)" x2="84" y2="0" style="fill: none; stroke: #000; stroke-opacity: 0.15; opacity: 1;"></line><line transform="translate(0,75.5)" x2="84" y2="0" style="fill: none; stroke: #000; stroke-opacity: 0.15; opacity: 1;"></line><line transform="translate(0,50.5)" x2="84" y2="0" style="fill: none; stroke: #000; stroke-opacity: 0.15; opacity: 1;"></line><line transform="translate(0,25.5)" x2="84" y2="0" style="fill: none; stroke: #000; stroke-opacity: 0.15; opacity: 1;"></line><line transform="translate(0,0.5)" x2="84" y2="0" style="fill: none; stroke: #000; stroke-opacity: 0.15; opacity: 1;"></line></g><g class="mark-rule" style="pointer-events: none;"><line transform="translate(-6,200.5)" x2="6" y2="0" style="fill: none; stroke: #000; stroke-width: 1; opacity: 1;"></line><line transform="translate(-6,175.5)" x2="6" y2="0" style="fill: none; stroke: #000; stroke-width: 1; opacity: 1;"></line><line transform="translate(-6,150.5)" x2="6" y2="0" style="fill: none; stroke: #000; stroke-width: 1; opacity: 1;"></line><line transform="translate(-6,125.5)" x2="6" y2="0" style="fill: none; stroke: #000; stroke-width: 1; opacity: 1;"></line><line transform="translate(-6,100.5)" x2="6" y2="0" style="fill: none; stroke: #000; stroke-width: 1; opacity: 1;"></line><line transform="translate(-6,75.5)" x2="6" y2="0" style="fill: none; stroke: #000; stroke-width: 1; opacity: 1;"></line><line transform="translate(-6,50.5)" x2="6" y2="0" style="fill: none; stroke: #000; stroke-width: 1; opacity: 1;"></line><line transform="translate(-6,25.5)" x2="6" y2="0" style="fill: none; stroke: #000; stroke-width: 1; opacity: 1;"></line><line transform="translate(-6,0.5)" x2="6" y2="0" style="fill: none; stroke: #000; stroke-width: 1; opacity: 1;"></line></g><g class="mark-rule" style="pointer-events: none;"></g><g class="mark-text"><text text-anchor="end" transform="translate(-9,203.5)" style="font: 11px sans-serif; fill: #000; opacity: 1;">0.0</text><text text-anchor="end" transform="translate(-9,178.5)" style="font: 11px sans-serif; fill: #000; opacity: 1;">0.020</text><text text-anchor="end" transform="translate(-9,153.5)" style="font: 11px sans-serif; fill: #000; opacity: 1;">0.040</text><text text-anchor="end" transform="translate(-9,128.5)" style="font: 11px sans-serif; fill: #000; opacity: 1;">0.060</text><text text-anchor="end" transform="translate(-9,103.5)" style="font: 11px sans-serif; fill: #000; opacity: 1;">0.080</text><text text-anchor="end" transform="translate(-9,78.5)" style="font: 11px sans-serif; fill: #000; opacity: 1;">0.10</text><text text-anchor="end" transform="translate(-9,53.5)" style="font: 11px sans-serif; fill: #000; opacity: 1;">0.12</text><text text-anchor="end" transform="translate(-9,28.5)" style="font: 11px sans-serif; fill: #000; opacity: 1;">0.14</text><text text-anchor="end" transform="translate(-9,3.5)" style="font: 11px sans-serif; fill: #000; opacity: 1;">0.16</text></g><g class="mark-path" style="pointer-events: none;"><path transform="translate(0.5,0.5)" d="M-6,0H0V200H-6" style="fill: none; stroke: #000; stroke-width: 1;"></path></g><g class="mark-text"><text text-anchor="middle" transform="translate(-48,100) rotate(-90) translate(0,3)" style="font: bold 11px sans-serif; fill: #000;">y</text></g></g></g><g class="mark-rect marks"><rect transform="translate(4,24)" width="20" height="176" style="fill: #4682b4;"></rect><rect transform="translate(60,4)" width="20" height="196" style="fill: #4682b4;"></rect><rect transform="translate(32,1)" width="20" height="199" style="fill: #4682b4;"></rect></g></g></g></g></g></g></svg>