<svg version="1.1" viewBox="0.0 0.0 960.0 720.0" fill="none" stroke="none" stroke-linecap="square" stroke-miterlimit="10" xmlns:xlink="http://www.w3.org/1999/xlink" xmlns="http://www.w3.org/2000/svg"><clipPath id="p.0"><path d="m0 0l960.0 0l0 720.0l-960.0 0l0 -720.0z" clip-rule="nonzero"/></clipPath><g clip-path="url(#p.0)"><path fill="#000000" fill-opacity="0.0" d="m0 0l960.0 0l0 720.0l-960.0 0z" fill-rule="evenodd"/><path fill="#cfe2f3" d="m7.614173E-4 147.96501l0 0c0 -72.03184 58.39335 -130.42519 130.4252 -130.42519l0 0c34.59091 0 67.76506 13.741186 92.22453 38.200657c24.459473 24.459465 38.20067 57.63363 38.20067 92.22453l0 0c0 72.03186 -58.393356 130.42522 -130.4252 130.42522l0 0c-72.03185 0 -130.4252 -58.393356 -130.4252 -130.42522z" fill-rule="evenodd"/><path stroke="#000000" stroke-width="1.0" stroke-linejoin="round" stroke-linecap="butt" d="m7.614173E-4 147.96501l0 0c0 -72.03184 58.39335 -130.42519 130.4252 -130.42519l0 0c34.59091 0 67.76506 13.741186 92.22453 38.200657c24.459473 24.459465 38.20067 57.63363 38.20067 92.22453l0 0c0 72.03186 -58.393356 130.42522 -130.4252 130.42522l0 0c-72.03185 0 -130.4252 -58.393356 -130.4252 -130.42522z" fill-rule="evenodd"/><path fill="#000000" d="m94.700264 186.36502l29.3125 -76.34375l10.890633 0l31.25 76.34375l-11.515625 0l-8.90625 -23.125l-31.921883 0l-8.375 23.125l-10.734375 0zm22.03125 -31.34375l25.875008 0l-7.96875 -21.15625q-3.640625 -9.625 -5.40625 -15.828125q-1.4687576 7.34375 -4.1250076 14.578125l-8.375 22.40625z" fill-rule="nonzero"/><path fill="#cfe2f3" d="m312.8569 348.94666l0 0c0 -72.03186 58.39334 -130.4252 130.4252 -130.4252l0 0c34.59091 0 67.765076 13.74118 92.22455 38.200653c24.459473 24.459473 38.200623 57.633636 38.200623 92.22455l0 0c0 72.03183 -58.39331 130.4252 -130.42517 130.4252l0 0c-72.03186 0 -130.4252 -58.39337 -130.4252 -130.4252z" fill-rule="evenodd"/><path stroke="#000000" stroke-width="1.0" stroke-linejoin="round" stroke-linecap="butt" d="m312.8569 348.94666l0 0c0 -72.03186 58.39334 -130.4252 130.4252 -130.4252l0 0c34.59091 0 67.765076 13.74118 92.22455 38.200653c24.459473 24.459473 38.200623 57.633636 38.200623 92.22455l0 0c0 72.03183 -58.39331 130.4252 -130.42517 130.4252l0 0c-72.03186 0 -130.4252 -58.39337 -130.4252 -130.4252z" fill-rule="evenodd"/><path fill="#000000" d="m412.84778 387.34665l0 -9.375l39.109375 -48.90625q4.15625 -5.203125 7.90625 -9.0625l-42.59375 0l0 -9.0l54.6875 0l0 9.0l-42.859375 52.96875l-4.640625 5.359375l48.75 0l0 9.015625l-60.359375 0z" fill-rule="nonzero"/><path fill="#cfe2f3" d="m-3.0524936E-4 572.0352l0 0c0 -72.03183 58.39335 -130.42517 130.4252 -130.42517l0 0c34.59091 0 67.76506 13.74118 92.22453 38.200653c24.459473 24.459473 38.20067 57.633636 38.20067 92.22452l0 0c0 72.03186 -58.393356 130.42523 -130.4252 130.42523l0 0c-72.03185 0 -130.4252 -58.39337 -130.4252 -130.42523z" fill-rule="evenodd"/><path stroke="#000000" stroke-width="1.0" stroke-linejoin="round" stroke-linecap="butt" d="m-3.0524936E-4 572.0352l0 0c0 -72.03183 58.39335 -130.42517 130.4252 -130.42517l0 0c34.59091 0 67.76506 13.74118 92.22453 38.200653c24.459473 24.459473 38.20067 57.633636 38.20067 92.22452l0 0c0 72.03186 -58.393356 130.42523 -130.4252 130.42523l0 0c-72.03185 0 -130.4252 -58.39337 -130.4252 -130.42523z" fill-rule="evenodd"/><path fill="#000000" d="m154.61615 583.6696l10.109375 2.546875q-3.1875 12.453125 -11.4375 18.984375q-8.25 6.53125 -20.1875 6.53125q-12.34375 0 -20.078125 -5.015625q-7.71875 -5.03125 -11.765625 -14.5625q-4.03125 -9.53125 -4.03125 -20.46875q0 -11.921875 4.546875 -20.796875q4.5625 -8.890625 12.96875 -13.5q8.421875 -4.609375 18.515625 -4.609375q11.46875 0 19.28125 5.84375q7.8125 5.828125 10.875 16.40625l-9.9375 2.34375q-2.65625 -8.34375 -7.71875 -12.140625q-5.046875 -3.796875 -12.703125 -3.796875q-8.796875 0 -14.71875 4.21875q-5.90625 4.21875 -8.296875 11.328125q-2.390625 7.109375 -2.390625 14.65625q0 9.734375 2.828125 17.0q2.84375 7.265625 8.828125 10.859375q5.984375 3.59375 12.96875 3.59375q8.484375 0 14.375 -4.890625q5.890625 -4.90625 7.96875 -14.53125z" fill-rule="nonzero"/><path fill="#000000" fill-opacity="0.0" d="m246.49062 208.87958l104.56694 47.84253" fill-rule="evenodd"/><path stroke="#000000" stroke-width="3.0" stroke-linejoin="round" stroke-linecap="butt" d="m246.49063 208.8796l88.19876 40.353592" fill-rule="evenodd"/><path fill="#000000" stroke="#000000" stroke-width="3.0" stroke-linecap="butt" d="m332.62778 253.73917l14.44165 1.1582642l-10.31842 -10.170197z" fill-rule="evenodd"/><path fill="#000000" fill-opacity="0.0" d="m251.62448 522.557l99.433075 -81.38583" fill-rule="evenodd"/><path stroke="#000000" stroke-width="3.0" stroke-linejoin="round" stroke-linecap="butt" d="m251.62448 522.557l85.504 -69.984924" fill-rule="evenodd"/><path fill="#000000" stroke="#000000" stroke-width="3.0" stroke-linecap="butt" d="m340.26703 456.40662l7.396698 -12.457611l-13.673798 4.788574z" fill-rule="evenodd"/><path fill="#cfe2f3" d="m699.1509 348.94797l0 0c0 -72.03186 58.39331 -130.4252 130.42517 -130.4252l0 0c34.590942 0 67.765076 13.74118 92.22455 38.200653c24.459473 24.459473 38.200684 57.633636 38.200684 92.22455l0 0c0 72.03183 -58.39337 130.4252 -130.42523 130.4252l0 0c-72.03186 0 -130.42517 -58.39337 -130.42517 -130.4252z" fill-rule="evenodd"/><path stroke="#000000" stroke-width="1.0" stroke-linejoin="round" stroke-linecap="butt" d="m699.1509 348.94797l0 0c0 -72.03186 58.39331 -130.4252 130.42517 -130.4252l0 0c34.590942 0 67.765076 13.74118 92.22455 38.200653c24.459473 24.459473 38.200684 57.633636 38.200684 92.22455l0 0c0 72.03183 -58.39337 130.4252 -130.42523 130.4252l0 0c-72.03186 0 -130.42517 -58.39337 -130.42517 -130.4252z" fill-rule="evenodd"/><path fill="#000000" d="m801.8191 387.34796l0 -76.34375l28.640625 0q8.75 0 14.03125 2.3125q5.296875 2.3125 8.28125 7.140625q3.0 4.8125 3.0 10.078125q0 4.890625 -2.65625 9.21875q-2.65625 4.3125 -8.015625 6.96875q6.921875 2.03125 10.640625 6.9375q3.734375 4.890625 3.734375 11.546875q0 5.375 -2.265625 9.984375q-2.265625 4.609375 -5.609375 7.109375q-3.328125 2.5 -8.359375 3.78125q-5.015625 1.265625 -12.3125 1.265625l-29.109375 0zm10.109375 -44.265625l16.5 0q6.71875 0 9.640625 -0.890625q3.84375 -1.140625 5.796875 -3.796875q1.953125 -2.65625 1.953125 -6.671875q0 -3.796875 -1.828125 -6.6875q-1.8125 -2.890625 -5.203125 -3.953125q-3.375 -1.078125 -11.609375 -1.078125l-15.25 0l0 23.078125zm0 35.25l19.0 0q4.890625 0 6.875 -0.359375q3.484375 -0.625 5.828125 -2.078125q2.34375 -1.46875 3.859375 -4.25q1.515625 -2.78125 1.515625 -6.4375q0 -4.265625 -2.1875 -7.40625q-2.1875 -3.15625 -6.078125 -4.421875q-3.875 -1.28125 -11.171875 -1.28125l-17.640625 0l0 26.234375z" fill-rule="nonzero"/><path fill="#000000" fill-opacity="0.0" d="m573.702 349.3574l125.44885 -0.40942383" fill-rule="evenodd"/><path stroke="#000000" stroke-width="3.0" stroke-linejoin="round" stroke-linecap="butt" d="m573.7021 349.3574l107.44885 -0.3506775" fill-rule="evenodd"/><path fill="#000000" stroke="#000000" stroke-width="3.0" stroke-linecap="butt" d="m681.1671 353.96188l13.598022 -4.9996033l-13.630371 -4.910736z" fill-rule="evenodd"/></g></svg>