<svg class="marks" width="264" height="255" version="1.1" xmlns="http://www.w3.org/2000/svg" xmlns:xlink="http://www.w3.org/1999/xlink"><g transform="translate(54,12)"><g class="mark-group"><g transform="translate(0,0)"><rect class="background" width="1" height="1" style="fill: none;"></rect><g class="mark-group root"><g transform="translate(0,0)"><rect class="background" width="200" height="200" style="fill: none;"></rect><g class="mark-group"><g transform="translate(0,200)"><rect class="background" width="0" height="0" style="pointer-events: none; fill: none;"></rect><g class="mark-rule" style="pointer-events: none;"><line transform="translate(0.5,-200)" x2="0" y2="200" style="fill: none; stroke: #000; stroke-opacity: 0.15; opacity: 1;"></line><line transform="translate(40.5,-200)" x2="0" y2="200" style="fill: none; stroke: #000; stroke-opacity: 0.15; opacity: 1;"></line><line transform="translate(80.5,-200)" x2="0" y2="200" style="fill: none; stroke: #000; stroke-opacity: 0.15; opacity: 1;"></line><line transform="translate(120.5,-200)" x2="0" y2="200" style="fill: none; stroke: #000; stroke-opacity: 0.15; opacity: 1;"></line><line transform="translate(160.5,-200)" x2="0" y2="200" style="fill: none; stroke: #000; stroke-opacity: 0.15; opacity: 1;"></line><line transform="translate(200.5,-200)" x2="0" y2="200" style="fill: none; stroke: #000; stroke-opacity: 0.15; opacity: 1;"></line></g><g class="mark-rule" style="pointer-events: none;"><line transform="translate(0.5,0)" x2="0" y2="6" style="fill: none; stroke: #000; stroke-width: 1; opacity: 1;"></line><line transform="translate(40.5,0)" x2="0" y2="6" style="fill: none; stroke: #000; stroke-width: 1; opacity: 1;"></line><line transform="translate(80.5,0)" x2="0" y2="6" style="fill: none; stroke: #000; stroke-width: 1; opacity: 1;"></line><line transform="translate(120.5,0)" x2="0" y2="6" style="fill: none; stroke: #000; stroke-width: 1; opacity: 1;"></line><line transform="translate(160.5,0)" x2="0" y2="6" style="fill: none; stroke: #000; stroke-width: 1; opacity: 1;"></line><line transform="translate(200.5,0)" x2="0" y2="6" style="fill: none; stroke: #000; stroke-width: 1; opacity: 1;"></line></g><g class="mark-rule" style="pointer-events: none;"></g><g class="mark-text"><text text-anchor="middle" transform="translate(0.5,19)" style="font: 11px sans-serif; fill: #000; opacity: 1;">0</text><text text-anchor="middle" transform="translate(40.5,19)" style="font: 11px sans-serif; fill: #000; opacity: 1;">0.2</text><text text-anchor="middle" transform="translate(80.5,19)" style="font: 11px sans-serif; fill: #000; opacity: 1;">0.4</text><text text-anchor="middle" transform="translate(120.5,19)" style="font: 11px sans-serif; fill: #000; opacity: 1;">0.6</text><text text-anchor="middle" transform="translate(160.5,19)" style="font: 11px sans-serif; fill: #000; opacity: 1;">0.8</text><text text-anchor="middle" transform="translate(200.5,19)" style="font: 11px sans-serif; fill: #000; opacity: 1;">1</text></g><g class="mark-path" style="pointer-events: none;"><path transform="translate(0.5,0.5)" d="M0,6V0H200V6" style="fill: none; stroke: #000; stroke-width: 1;"></path></g><g class="mark-text"><text text-anchor="middle" transform="translate(100,35)" style="font: bold 11px sans-serif; fill: #000;">causal_power</text></g></g></g><g class="mark-group"><g transform="translate(0,0)"><rect class="background" width="0" height="0" style="pointer-events: none; fill: none;"></rect><g class="mark-rule" style="pointer-events: none;"><line transform="translate(0,200.5)" x2="200" y2="0" style="fill: none; stroke: #000; stroke-opacity: 0.15; opacity: 1;"></line><line transform="translate(0,180.5)" x2="200" y2="0" style="fill: none; stroke: #000; stroke-opacity: 0.15; opacity: 1;"></line><line transform="translate(0,160.5)" x2="200" y2="0" style="fill: none; stroke: #000; stroke-opacity: 0.15; opacity: 1;"></line><line transform="translate(0,140.5)" x2="200" y2="0" style="fill: none; stroke: #000; stroke-opacity: 0.15; opacity: 1;"></line><line transform="translate(0,120.5)" x2="200" y2="0" style="fill: none; stroke: #000; stroke-opacity: 0.15; opacity: 1;"></line><line transform="translate(0,100.5)" x2="200" y2="0" style="fill: none; stroke: #000; stroke-opacity: 0.15; opacity: 1;"></line><line transform="translate(0,80.5)" x2="200" y2="0" style="fill: none; stroke: #000; stroke-opacity: 0.15; opacity: 1;"></line><line transform="translate(0,60.5)" x2="200" y2="0" style="fill: none; stroke: #000; stroke-opacity: 0.15; opacity: 1;"></line><line transform="translate(0,40.5)" x2="200" y2="0" style="fill: none; stroke: #000; stroke-opacity: 0.15; opacity: 1;"></line><line transform="translate(0,20.5)" x2="200" y2="0" style="fill: none; stroke: #000; stroke-opacity: 0.15; opacity: 1;"></line><line transform="translate(0,0.5)" x2="200" y2="0" style="fill: none; stroke: #000; stroke-opacity: 0.15; opacity: 1;"></line></g><g class="mark-rule" style="pointer-events: none;"><line transform="translate(-6,200.5)" x2="6" y2="0" style="fill: none; stroke: #000; stroke-width: 1; opacity: 1;"></line><line transform="translate(-6,180.5)" x2="6" y2="0" style="fill: none; stroke: #000; stroke-width: 1; opacity: 1;"></line><line transform="translate(-6,160.5)" x2="6" y2="0" style="fill: none; stroke: #000; stroke-width: 1; opacity: 1;"></line><line transform="translate(-6,140.5)" x2="6" y2="0" style="fill: none; stroke: #000; stroke-width: 1; opacity: 1;"></line><line transform="translate(-6,120.5)" x2="6" y2="0" style="fill: none; stroke: #000; stroke-width: 1; opacity: 1;"></line><line transform="translate(-6,100.5)" x2="6" y2="0" style="fill: none; stroke: #000; stroke-width: 1; opacity: 1;"></line><line transform="translate(-6,80.5)" x2="6" y2="0" style="fill: none; stroke: #000; stroke-width: 1; opacity: 1;"></line><line transform="translate(-6,60.5)" x2="6" y2="0" style="fill: none; stroke: #000; stroke-width: 1; opacity: 1;"></line><line transform="translate(-6,40.5)" x2="6" y2="0" style="fill: none; stroke: #000; stroke-width: 1; opacity: 1;"></line><line transform="translate(-6,20.5)" x2="6" y2="0" style="fill: none; stroke: #000; stroke-width: 1; opacity: 1;"></line><line transform="translate(-6,0.5)" x2="6" y2="0" style="fill: none; stroke: #000; stroke-width: 1; opacity: 1;"></line></g><g class="mark-rule" style="pointer-events: none;"></g><g class="mark-text"><text text-anchor="end" transform="translate(-9,203.5)" style="font: 11px sans-serif; fill: #000; opacity: 1;">0.0</text><text text-anchor="end" transform="translate(-9,183.5)" style="font: 11px sans-serif; fill: #000; opacity: 1;">0.20</text><text text-anchor="end" transform="translate(-9,163.5)" style="font: 11px sans-serif; fill: #000; opacity: 1;">0.40</text><text text-anchor="end" transform="translate(-9,143.5)" style="font: 11px sans-serif; fill: #000; opacity: 1;">0.60</text><text text-anchor="end" transform="translate(-9,123.5)" style="font: 11px sans-serif; fill: #000; opacity: 1;">0.80</text><text text-anchor="end" transform="translate(-9,103.5)" style="font: 11px sans-serif; fill: #000; opacity: 1;">1.0</text><text text-anchor="end" transform="translate(-9,83.5)" style="font: 11px sans-serif; fill: #000; opacity: 1;">1.2</text><text text-anchor="end" transform="translate(-9,63.5)" style="font: 11px sans-serif; fill: #000; opacity: 1;">1.4</text><text text-anchor="end" transform="translate(-9,43.5)" style="font: 11px sans-serif; fill: #000; opacity: 1;">1.6</text><text text-anchor="end" transform="translate(-9,23.5)" style="font: 11px sans-serif; fill: #000; opacity: 1;">1.8</text><text text-anchor="end" transform="translate(-9,3.5)" style="font: 11px sans-serif; fill: #000; opacity: 1;">2.0</text></g><g class="mark-path" style="pointer-events: none;"><path transform="translate(0.5,0.5)" d="M-6,0H0V200H-6" style="fill: none; stroke: #000; stroke-width: 1;"></path></g><g class="mark-text"><text text-anchor="middle" transform="translate(-42,100) rotate(-90) translate(0,3)" style="font: bold 11px sans-serif; fill: #000;">density</text></g></g></g><g class="mark-line marks"><path d="M197,197L195,196L193,195L191,193L189,191L187,188L185,185L183,183L181,179L179,176L177,173L175,171L173,169L171,167L169,165L167,164L165,163L163,160L161,157L159,154L157,151L155,149L153,148L151,146L150,142L148,140L146,139L144,138L142,136L140,132L138,130L136,128L134,126L132,126L130,125L128,123L126,123L124,125L122,125L120,125L118,125L116,123L114,122L112,121L110,120L108,122L106,123L104,124L102,124L100,121L98,118L96,114L94,111L92,105L91,97L89,89L87,83L85,81L83,80L81,80L79,79L77,77L75,74L73,75L71,76L69,76L67,76L65,74L63,72L61,67L59,66L57,63L55,60L53,56L51,54L49,52L47,47L45,44L43,42L41,41L39,38L37,35L35,33L33,31L32,27L30,25L28,23L26,20L24,13L22,9L20,7L18,7L16,6L14,6L12,6L10,6L8,14L6,28L4,49L2,71L0,96" style="fill: none; stroke: #4682b4; stroke-width: 2;"></path></g></g></g></g></g></g></svg>